0
SECTION
2
HEADER
9
$INSUNITS
70
4
0
ENDSEC
0
SECTION
2
TABLES
0
TABLE
2
LTYPE
0
LTYPE
72
65
70
64
2
CONTINUOUS
3
______
73
0
40
0
0
ENDTAB
0
TABLE
2
LAYER
0
ENDTAB
0
ENDSEC
0
SECTION
2
ENTITIES
0
LINE
8
front_outsideCutPath
10
0
20
164.5
11
0
21
187.5
0
LINE
8
front_outsideCutPath
10
0
20
164.5
11
3
21
164.5
0
LINE
8
front_outsideCutPath
10
3
20
164.5
11
3
21
155.5
0
LINE
8
front_outsideCutPath
10
3
20
155.5
11
0
21
155.5
0
LINE
8
front_outsideCutPath
10
0
20
155.5
11
0
21
146.5
0
LINE
8
front_outsideCutPath
10
0
20
146.5
11
3
21
146.5
0
LINE
8
front_outsideCutPath
10
3
20
146.5
11
3
21
137.5
0
LINE
8
front_outsideCutPath
10
3
20
137.5
11
0
21
137.5
0
LINE
8
front_outsideCutPath
10
0
20
137.5
11
0
21
128.5
0
LINE
8
front_outsideCutPath
10
0
20
128.5
11
3
21
128.5
0
LINE
8
front_outsideCutPath
10
3
20
128.5
11
3
21
119.5
0
LINE
8
front_outsideCutPath
10
3
20
119.5
11
0
21
119.5
0
LINE
8
front_outsideCutPath
10
0
20
119.5
11
0
21
110.5
0
LINE
8
front_outsideCutPath
10
0
20
110.5
11
3
21
110.5
0
LINE
8
front_outsideCutPath
10
3
20
110.5
11
3
21
101.5
0
LINE
8
front_outsideCutPath
10
3
20
101.5
11
0
21
101.5
0
LINE
8
front_outsideCutPath
10
0
20
101.5
11
0
21
92.5
0
LINE
8
front_outsideCutPath
10
0
20
92.5
11
3
21
92.5
0
LINE
8
front_outsideCutPath
10
3
20
92.5
11
3
21
83.5
0
LINE
8
front_outsideCutPath
10
3
20
83.5
11
0
21
83.5
0
LINE
8
front_outsideCutPath
10
0
20
83.5
11
0
21
74.5
0
LINE
8
front_outsideCutPath
10
0
20
74.5
11
3
21
74.5
0
LINE
8
front_outsideCutPath
10
3
20
74.5
11
3
21
65.5
0
LINE
8
front_outsideCutPath
10
3
20
65.5
11
0
21
65.5
0
LINE
8
front_outsideCutPath
10
0
20
65.5
11
0
21
56.5
0
LINE
8
front_outsideCutPath
10
0
20
56.5
11
3
21
56.5
0
LINE
8
front_outsideCutPath
10
3
20
56.5
11
3
21
47.5
0
LINE
8
front_outsideCutPath
10
3
20
47.5
11
0
21
47.5
0
LINE
8
front_outsideCutPath
10
0
20
47.5
11
0
21
38.5
0
LINE
8
front_outsideCutPath
10
0
20
38.5
11
3
21
38.5
0
LINE
8
front_outsideCutPath
10
3
20
38.5
11
3
21
29.5
0
LINE
8
front_outsideCutPath
10
3
20
29.5
11
0
21
29.5
0
LINE
8
front_outsideCutPath
10
0
20
29.5
11
0
21
20.5
0
LINE
8
front_outsideCutPath
10
0
20
20.5
11
3
21
20.5
0
LINE
8
front_outsideCutPath
10
3
20
20.5
11
3
21
11.5
0
LINE
8
front_outsideCutPath
10
3
20
11.5
11
0
21
11.5
0
LINE
8
front_outsideCutPath
10
0
20
11.5
11
0
21
0
0
LINE
8
front_outsideCutPath
10
0
20
0
11
11.5
21
0
0
LINE
8
front_outsideCutPath
10
11.5
20
0
11
11.5
21
3
0
LINE
8
front_outsideCutPath
10
11.5
20
3
11
20.5
21
3
0
LINE
8
front_outsideCutPath
10
20.5
20
3
11
20.5
21
0
0
LINE
8
front_outsideCutPath
10
20.5
20
0
11
29.5
21
0
0
LINE
8
front_outsideCutPath
10
29.5
20
0
11
29.5
21
3
0
LINE
8
front_outsideCutPath
10
29.5
20
3
11
38.5
21
3
0
LINE
8
front_outsideCutPath
10
38.5
20
3
11
38.5
21
0
0
LINE
8
front_outsideCutPath
10
38.5
20
0
11
47.5
21
0
0
LINE
8
front_outsideCutPath
10
47.5
20
0
11
47.5
21
3
0
LINE
8
front_outsideCutPath
10
47.5
20
3
11
56.5
21
3
0
LINE
8
front_outsideCutPath
10
56.5
20
3
11
56.5
21
0
0
LINE
8
front_outsideCutPath
10
56.5
20
0
11
65.5
21
0
0
LINE
8
front_outsideCutPath
10
65.5
20
0
11
65.5
21
3
0
LINE
8
front_outsideCutPath
10
65.5
20
3
11
74.5
21
3
0
LINE
8
front_outsideCutPath
10
74.5
20
3
11
74.5
21
0
0
LINE
8
front_outsideCutPath
10
74.5
20
0
11
83.5
21
0
0
LINE
8
front_outsideCutPath
10
83.5
20
0
11
83.5
21
3
0
LINE
8
front_outsideCutPath
10
83.5
20
3
11
92.5
21
3
0
LINE
8
front_outsideCutPath
10
92.5
20
3
11
92.5
21
0
0
LINE
8
front_outsideCutPath
10
92.5
20
0
11
101.5
21
0
0
LINE
8
front_outsideCutPath
10
101.5
20
0
11
101.5
21
3
0
LINE
8
front_outsideCutPath
10
101.5
20
3
11
110.5
21
3
0
LINE
8
front_outsideCutPath
10
110.5
20
3
11
110.5
21
0
0
LINE
8
front_outsideCutPath
10
110.5
20
0
11
119.5
21
0
0
LINE
8
front_outsideCutPath
10
119.5
20
0
11
119.5
21
3
0
LINE
8
front_outsideCutPath
10
119.5
20
3
11
128.5
21
3
0
LINE
8
front_outsideCutPath
10
128.5
20
3
11
128.5
21
0
0
LINE
8
front_outsideCutPath
10
128.5
20
0
11
137.5
21
0
0
LINE
8
front_outsideCutPath
10
137.5
20
0
11
137.5
21
3
0
LINE
8
front_outsideCutPath
10
137.5
20
3
11
146.5
21
3
0
LINE
8
front_outsideCutPath
10
146.5
20
3
11
146.5
21
0
0
LINE
8
front_outsideCutPath
10
146.5
20
0
11
155.5
21
0
0
LINE
8
front_outsideCutPath
10
155.5
20
0
11
155.5
21
3
0
LINE
8
front_outsideCutPath
10
155.5
20
3
11
164.5
21
3
0
LINE
8
front_outsideCutPath
10
164.5
20
3
11
164.5
21
0
0
LINE
8
front_outsideCutPath
10
164.5
20
0
11
176
21
0
0
LINE
8
front_outsideCutPath
10
176
20
0
11
176
21
20.5
0
LINE
8
front_outsideCutPath
10
173
20
11.5
11
179
21
11.5
0
LINE
8
front_outsideCutPath
10
173
20
11.5
11
173
21
20.5
0
LINE
8
front_outsideCutPath
10
173
20
20.5
11
179
21
20.5
0
LINE
8
front_outsideCutPath
10
176
20
20.5
11
176
21
38.5
0
LINE
8
front_outsideCutPath
10
173
20
29.5
11
179
21
29.5
0
LINE
8
front_outsideCutPath
10
173
20
29.5
11
173
21
38.5
0
LINE
8
front_outsideCutPath
10
173
20
38.5
11
179
21
38.5
0
LINE
8
front_outsideCutPath
10
176
20
38.5
11
176
21
56.5
0
LINE
8
front_outsideCutPath
10
173
20
47.5
11
179
21
47.5
0
LINE
8
front_outsideCutPath
10
173
20
47.5
11
173
21
56.5
0
LINE
8
front_outsideCutPath
10
173
20
56.5
11
179
21
56.5
0
LINE
8
front_outsideCutPath
10
176
20
56.5
11
176
21
74.5
0
LINE
8
front_outsideCutPath
10
173
20
65.5
11
179
21
65.5
0
LINE
8
front_outsideCutPath
10
173
20
65.5
11
173
21
74.5
0
LINE
8
front_outsideCutPath
10
173
20
74.5
11
179
21
74.5
0
LINE
8
front_outsideCutPath
10
176
20
74.5
11
176
21
92.5
0
LINE
8
front_outsideCutPath
10
173
20
83.5
11
179
21
83.5
0
LINE
8
front_outsideCutPath
10
173
20
83.5
11
173
21
92.5
0
LINE
8
front_outsideCutPath
10
173
20
92.5
11
179
21
92.5
0
LINE
8
front_outsideCutPath
10
176
20
92.5
11
176
21
110.5
0
LINE
8
front_outsideCutPath
10
173
20
101.5
11
179
21
101.5
0
LINE
8
front_outsideCutPath
10
173
20
101.5
11
173
21
110.5
0
LINE
8
front_outsideCutPath
10
173
20
110.5
11
179
21
110.5
0
LINE
8
front_outsideCutPath
10
176
20
110.5
11
176
21
128.5
0
LINE
8
front_outsideCutPath
10
173
20
119.5
11
179
21
119.5
0
LINE
8
front_outsideCutPath
10
173
20
119.5
11
173
21
128.5
0
LINE
8
front_outsideCutPath
10
173
20
128.5
11
179
21
128.5
0
LINE
8
front_outsideCutPath
10
176
20
128.5
11
176
21
146.5
0
LINE
8
front_outsideCutPath
10
173
20
137.5
11
179
21
137.5
0
LINE
8
front_outsideCutPath
10
173
20
137.5
11
173
21
146.5
0
LINE
8
front_outsideCutPath
10
173
20
146.5
11
179
21
146.5
0
LINE
8
front_outsideCutPath
10
176
20
146.5
11
176
21
164.5
0
LINE
8
front_outsideCutPath
10
173
20
155.5
11
179
21
155.5
0
LINE
8
front_outsideCutPath
10
173
20
155.5
11
173
21
164.5
0
LINE
8
front_outsideCutPath
10
173
20
164.5
11
179
21
164.5
0
LINE
8
front_outsideCutPath
10
176
20
164.5
11
176
21
196.5
0
LINE
8
front_outsideCutPath
10
164.5
20
176
11
176
21
176
0
LINE
8
front_outsideCutPath
10
164.5
20
173
11
164.5
21
179
0
LINE
8
front_outsideCutPath
10
164.5
20
173
11
155.5
21
173
0
LINE
8
front_outsideCutPath
10
155.5
20
173
11
155.5
21
179
0
LINE
8
front_outsideCutPath
10
146.5
20
176
11
155.5
21
176
0
LINE
8
front_outsideCutPath
10
146.5
20
173
11
146.5
21
179
0
LINE
8
front_outsideCutPath
10
146.5
20
173
11
137.5
21
173
0
LINE
8
front_outsideCutPath
10
137.5
20
173
11
137.5
21
179
0
LINE
8
front_outsideCutPath
10
128.5
20
176
11
137.5
21
176
0
LINE
8
front_outsideCutPath
10
128.5
20
173
11
128.5
21
179
0
LINE
8
front_outsideCutPath
10
128.5
20
173
11
119.5
21
173
0
LINE
8
front_outsideCutPath
10
119.5
20
173
11
119.5
21
179
0
LINE
8
front_outsideCutPath
10
110.5
20
176
11
119.5
21
176
0
LINE
8
front_outsideCutPath
10
110.5
20
173
11
110.5
21
179
0
LINE
8
front_outsideCutPath
10
110.5
20
173
11
101.5
21
173
0
LINE
8
front_outsideCutPath
10
101.5
20
173
11
101.5
21
179
0
LINE
8
front_outsideCutPath
10
92.5
20
176
11
101.5
21
176
0
LINE
8
front_outsideCutPath
10
92.5
20
173
11
92.5
21
179
0
LINE
8
front_outsideCutPath
10
92.5
20
173
11
83.5
21
173
0
LINE
8
front_outsideCutPath
10
83.5
20
173
11
83.5
21
179
0
LINE
8
front_outsideCutPath
10
74.5
20
176
11
83.5
21
176
0
LINE
8
front_outsideCutPath
10
74.5
20
173
11
74.5
21
179
0
LINE
8
front_outsideCutPath
10
74.5
20
173
11
65.5
21
173
0
LINE
8
front_outsideCutPath
10
65.5
20
173
11
65.5
21
179
0
LINE
8
front_outsideCutPath
10
56.5
20
176
11
65.5
21
176
0
LINE
8
front_outsideCutPath
10
56.5
20
173
11
56.5
21
179
0
LINE
8
front_outsideCutPath
10
56.5
20
173
11
47.5
21
173
0
LINE
8
front_outsideCutPath
10
47.5
20
173
11
47.5
21
179
0
LINE
8
front_outsideCutPath
10
38.5
20
176
11
47.5
21
176
0
LINE
8
front_outsideCutPath
10
38.5
20
173
11
38.5
21
179
0
LINE
8
front_outsideCutPath
10
38.5
20
173
11
29.5
21
173
0
LINE
8
front_outsideCutPath
10
29.5
20
173
11
29.5
21
179
0
LINE
8
front_outsideCutPath
10
20.5
20
176
11
29.5
21
176
0
LINE
8
front_outsideCutPath
10
20.5
20
173
11
20.5
21
179
0
LINE
8
front_outsideCutPath
10
20.5
20
173
11
11.5
21
173
0
LINE
8
front_outsideCutPath
10
11.5
20
173
11
11.5
21
179
0
LINE
8
front_outsideCutPath
10
0
20
176
11
11.5
21
176
0
LINE
8
front_labelLayer
10
58.8414062
20
93.5433415
11
58.8414062
21
91.326154
0
LINE
8
front_labelLayer
10
58.8414062
20
91.326154
11
54.0460937
21
91.326154
0
LINE
8
front_labelLayer
10
54.0460937
20
91.326154
11
54.0460937
21
74.7058415
0
LINE
8
front_labelLayer
10
54.0460937
20
74.7058415
11
51.1929687
21
74.7058415
0
LINE
8
front_labelLayer
10
51.1929687
20
74.7058415
11
51.1929687
21
91.326154
0
LINE
8
front_labelLayer
10
51.1929687
20
91.326154
11
47.8242187
21
91.326154
0
LINE
8
front_labelLayer
10
47.8242187
20
91.326154
11
47.8242187
21
92.6152165
0
LINE
8
front_labelLayer
10
47.8242187
20
92.6152165
11
51.1929687
21
93.6464665
0
LINE
8
front_labelLayer
10
51.1929687
20
93.6464665
11
51.1929687
21
94.694904
0
LINE
8
front_labelLayer
10
60.7664062
20
101.0370915
11
60.0273437
21
98.751154
0
LINE
8
front_labelLayer
10
54.0460937
20
94.763654
11
54.0460937
21
93.5433415
0
LINE
8
front_labelLayer
10
54.0460937
20
93.5433415
11
58.8414062
21
93.5433415
0
ARC
8
front_labelLayer
10
62.7556937
20
94.8278342
40
11.563489
50
167.5776003
51
180.6586688
0
ARC
8
front_labelLayer
10
57.3181571
20
96.0955527
40
5.9809372
50
141.7433839
51
168.2322136
0
ARC
8
front_labelLayer
10
56.4328183
20
96.5576334
40
5.0030498
50
98.2551471
51
139.620336
0
ARC
8
front_labelLayer
10
57.2101601
20
92.9666136
40
8.6721844
50
89.6696812
51
99.9314324
0
ARC
8
front_labelLayer
10
57.212328
20
92.4510459
40
9.1877325
50
81.5640914
51
89.7017359
0
ARC
8
front_labelLayer
10
56.5664144
20
87.9447973
40
13.7400016
50
75.973991
51
81.6564777
0
ARC
8
front_labelLayer
10
55.4580342
20
83.3474596
40
18.4689439
50
73.2963507
51
76.0946287
0
ARC
8
front_labelLayer
10
55.7371143
20
85.5774398
40
13.8547037
50
71.9613368
51
76.5918274
0
ARC
8
front_labelLayer
10
56.8119851
20
90.1371379
40
9.1700495
50
76.5183475
51
83.0216994
0
ARC
8
front_labelLayer
10
57.1863908
20
93.1480692
40
6.1359376
50
83.0760809
51
89.7926744
0
ARC
8
front_labelLayer
10
57.1740695
20
95.4363804
40
3.847741
50
89.4859016
51
103.4197574
0
ARC
8
front_labelLayer
10
56.8271682
20
96.7691341
40
2.4710269
50
102.7677335
51
144.3380345
0
ARC
8
front_labelLayer
10
57.5260349
20
96.3194785
40
3.3012543
50
145.0688824
51
162.1801859
0
ARC
8
front_labelLayer
10
59.9221886
20
95.5132902
40
5.8292633
50
161.8437526
51
171.7847057
0
ARC
8
front_labelLayer
10
63.8304049
20
94.9262885
40
9.7812784
50
171.6527862
51
178.4383463
0
ARC
8
front_labelLayer
10
67.5168347
20
94.7691013
40
13.470742
50
178.1973341
51
180.0231693
0
LINE
8
front_labelLayer
10
73.1242187
20
93.6808415
11
72.7289062
21
91.0339665
0
LINE
8
front_labelLayer
10
65.1320312
20
84.8120915
11
65.1320312
21
74.7058415
0
LINE
8
front_labelLayer
10
65.1320312
20
74.7058415
11
62.2789062
21
74.7058415
0
LINE
8
front_labelLayer
10
62.2789062
20
74.7058415
11
62.2789062
21
93.5433415
0
LINE
8
front_labelLayer
10
62.2789062
20
93.5433415
11
64.6335937
21
93.5433415
0
LINE
8
front_labelLayer
10
64.6335937
20
93.5433415
11
64.9601562
21
90.054279
0
LINE
8
front_labelLayer
10
64.9601562
20
90.054279
11
65.0976562
21
90.054279
0
ARC
8
front_labelLayer
10
70.9019392
20
80.788836
40
13.0982882
50
84.9922969
51
90.1280926
0
ARC
8
front_labelLayer
10
71.2164962
20
84.3131364
40
9.5599843
50
78.4891855
51
85.0265862
0
ARC
8
front_labelLayer
10
69.9955919
20
78.7601605
40
12.5744709
50
77.4453853
51
81.6360448
0
ARC
8
front_labelLayer
10
70.5434457
20
82.5365021
40
8.7586064
50
81.5884068
51
87.1916694
0
ARC
8
front_labelLayer
10
70.6624285
20
84.5995825
40
6.6921975
50
87.3437177
51
89.9659446
0
ARC
8
front_labelLayer
10
70.6347875
20
86.3482586
40
4.9436215
50
89.6335418
51
137.0880783
0
ARC
8
front_labelLayer
10
71.8479063
20
84.9840455
40
6.7631848
50
135.6208603
51
138.837765
0
ARC
8
front_labelLayer
10
71.6702629
20
85.1574505
40
6.5153264
50
138.9575758
51
174.5422231
0
ARC
8
front_labelLayer
10
73.7921813
20
84.8254324
40
8.6601605
50
173.6907591
51
180.0882642
0
ARC
8
front_labelLayer
10
73.492168
20
85.3248475
40
9.6351103
50
139.4139375
51
150.6032784
0
ARC
8
front_labelLayer
10
71.7645791
20
86.8052082
40
7.360021
50
124.2321482
51
139.4161059
0
ARC
8
front_labelLayer
10
70.8408576
20
88.1995612
40
5.6876192
50
89.6796656
51
124.4405638
0
ARC
8
front_labelLayer
10
78.1697981
20
84.0424264
40
14.737568
50
349.1761942
51
0.3862594
0
ARC
8
front_labelLayer
10
83.1315964
20
83.0532828
40
9.6783746
50
330.2507052
51
349.4116488
0
ARC
8
front_labelLayer
10
84.6585788
20
82.2596184
40
7.9591159
50
318.1439771
51
329.7566178
0
ARC
8
front_labelLayer
10
84.9341826
20
82.0387491
40
7.6064869
50
278.8959138
51
317.9979148
0
ARC
8
front_labelLayer
10
84.224068
20
85.4409684
40
11.0789821
50
269.7502808
51
279.8033234
0
ARC
8
front_labelLayer
10
84.1089
20
83.5240327
40
9.1621853
50
253.5436945
51
270.4182457
0
ARC
8
front_labelLayer
10
83.8039109
20
82.3442534
40
7.9444454
50
238.8115519
51
253.2428269
0
ARC
8
front_labelLayer
10
83.7054773
20
82.1463057
40
7.7241549
50
207.7947005
51
238.6757981
0
ARC
8
front_labelLayer
10
85.1180112
20
83.0114051
40
9.3777225
50
205.656047
51
208.4461169
0
ARC
8
front_labelLayer
10
86.205804
20
83.4646388
40
10.5546894
50
188.9102485
51
205.3171456
0
ARC
8
front_labelLayer
10
89.8721458
20
84.0855968
40
14.2730375
50
179.7744694
51
189.0932809
0
ARC
8
front_labelLayer
10
90.4129773
20
84.2421174
40
14.8140984
50
169.2442977
51
180.3880773
0
ARC
8
front_labelLayer
10
85.3822256
20
85.2365137
40
9.6862265
50
150.7111474
51
169.4695398
0
ARC
8
front_labelLayer
10
83.7762598
20
86.0612351
40
7.8823755
50
138.1759518
51
150.2287355
0
ARC
8
front_labelLayer
10
83.5091115
20
86.2662396
40
7.546634
50
99.175937
51
137.9832755
0
ARC
8
front_labelLayer
10
84.2443833
20
82.8059754
40
11.0812367
50
89.7326291
51
100.075987
0
ARC
8
front_labelLayer
10
84.3913392
20
84.3003358
40
9.5872288
50
73.5222791
51
90.5692212
0
ARC
8
front_labelLayer
10
84.9535735
20
86.3430854
40
7.4690097
50
41.1445663
51
73.2133822
0
ARC
8
front_labelLayer
10
83.8803163
20
85.4206351
40
8.884172
50
13.5014323
51
41.0703446
0
ARC
8
front_labelLayer
10
79.7337927
20
84.3355436
40
13.1697261
50
1.1277218
51
13.8800061
0
ARC
8
front_labelLayer
10
76.1623945
20
84.1441534
40
16.7446368
50
359.9918751
51
1.541974
0
ARC
8
front_labelLayer
10
93.0034506
20
84.0676338
40
14.4481721
50
179.705968
51
187.9160817
0
ARC
8
front_labelLayer
10
87.704314
20
83.3064185
40
9.0947275
50
187.7639335
51
200.0976878
0
ARC
8
front_labelLayer
10
84.7850367
20
82.236791
40
5.9856635
50
200.0845878
51
216.9131529
0
ARC
8
front_labelLayer
10
83.7190185
20
81.4756054
40
4.676268
50
217.3009598
51
261.70991
0
ARC
8
front_labelLayer
10
84.2139008
20
83.8371302
40
7.0860426
50
260.5033124
51
270.2476697
0
ARC
8
front_labelLayer
10
84.3083573
20
83.3779254
40
6.6270788
50
269.44817
51
284.7255708
0
ARC
8
front_labelLayer
10
84.832984
20
81.4322541
40
4.6119775
50
284.5662351
51
322.6333768
0
ARC
8
front_labelLayer
10
83.6063814
20
82.3184189
40
6.1247988
50
323.0089278
51
342.6390536
0
ARC
8
front_labelLayer
10
80.098026
20
83.4650505
40
9.8155863
50
342.3615721
51
353.7537547
0
ARC
8
front_labelLayer
10
74.9220593
20
84.0889449
40
15.0288148
50
353.5363085
51
0.2014247
0
ARC
8
front_labelLayer
10
75.7150839
20
84.2144395
40
14.2358828
50
359.7075588
51
7.8972665
0
ARC
8
front_labelLayer
10
80.9286546
20
84.9618513
40
8.9690971
50
7.7439963
51
20.0690163
0
ARC
8
front_labelLayer
10
83.8338693
20
86.0279552
40
5.8744533
50
20.0257083
51
37.435048
0
ARC
8
front_labelLayer
10
84.7977976
20
86.7119441
40
4.6934776
50
37.9577632
51
80.400621
0
ARC
8
front_labelLayer
10
84.2500291
20
84.2678605
40
7.195904
50
79.3453378
51
90.3174807
0
ARC
8
front_labelLayer
10
84.1486035
20
84.673821
40
6.790112
50
89.4806033
51
103.8804991
0
ARC
8
front_labelLayer
10
83.5780585
20
86.8464575
40
4.5441655
50
103.4685243
51
142.3118886
0
ARC
8
front_labelLayer
10
84.6872394
20
86.066402
40
5.8991267
50
142.9025678
51
162.3749635
0
ARC
8
front_labelLayer
10
88.1822838
20
84.9016877
40
9.5829079
50
162.0653181
51
173.1674866
0
ARC
8
front_labelLayer
10
93.6319526
20
84.2066131
40
15.0766232
50
173.0086139
51
180.2463904
0
LINE
8
front_labelLayer
10
113.6523437
20
74.7058415
11
110.7992187
21
74.7058415
0
LINE
8
front_labelLayer
10
110.7992187
20
74.7058415
11
110.7992187
21
86.891779
0
LINE
8
front_labelLayer
10
100.7617187
20
84.588654
11
100.7617187
21
74.7058415
0
LINE
8
front_labelLayer
10
100.7617187
20
74.7058415
11
97.9085937
21
74.7058415
0
LINE
8
front_labelLayer
10
97.9085937
20
74.7058415
11
97.9085937
21
93.5433415
0
LINE
8
front_labelLayer
10
97.9085937
20
93.5433415
11
100.2289062
21
93.5433415
0
LINE
8
front_labelLayer
10
100.2289062
20
93.5433415
11
100.6929687
21
90.9652165
0
LINE
8
front_labelLayer
10
100.6929687
20
90.9652165
11
100.8304687
21
90.9652165
0
LINE
8
front_labelLayer
10
113.6523437
20
86.994904
11
113.6523437
21
74.7058415
0
ARC
8
front_labelLayer
10
102.7342746
20
86.9380304
40
8.0650768
50
359.6714196
51
8.6877207
0
ARC
8
front_labelLayer
10
105.7234181
20
87.4120875
40
5.0386531
50
8.4931485
51
22.6579714
0
ARC
8
front_labelLayer
10
107.2421125
20
88.0432072
40
3.3940452
50
22.7024535
51
42.3419383
0
ARC
8
front_labelLayer
10
107.4128272
20
88.1200013
40
3.2166655
50
43.3790913
51
71.5386169
0
ARC
8
front_labelLayer
10
106.7744629
20
86.3362465
40
5.1109333
50
71.0828083
51
84.3691053
0
ARC
8
front_labelLayer
10
106.487913
20
83.8998884
40
7.5637917
50
84.0197977
51
90.1510778
0
ARC
8
front_labelLayer
10
106.4066756
20
82.8287788
40
8.6350927
50
89.5933029
51
100.371787
0
ARC
8
front_labelLayer
10
105.7964401
20
86.0304832
40
5.3758926
50
100.117636
51
118.1602642
0
ARC
8
front_labelLayer
10
105.1814789
20
87.236371
40
4.0226102
50
118.5439451
51
139.1926792
0
ARC
8
front_labelLayer
10
105.7176916
20
86.8765671
40
4.6642675
50
140.1519128
51
160.3146456
0
ARC
8
front_labelLayer
10
108.955704
20
85.6637446
40
8.121746
50
159.9534348
51
171.3801117
0
ARC
8
front_labelLayer
10
114.2450516
20
84.8135002
40
13.4788657
50
171.1765807
51
178.3217673
0
ARC
8
front_labelLayer
10
119.0395275
20
84.5962007
40
18.2778105
50
178.0810424
51
180.0236568
0
ARC
8
front_labelLayer
10
105.7111761
20
87.8741017
40
5.7772221
50
116.9442987
51
147.6525556
0
ARC
8
front_labelLayer
10
106.312729
20
86.8678935
40
6.9472462
50
115.8072385
51
117.6066982
0
ARC
8
front_labelLayer
10
106.6199295
20
86.1515326
40
7.7259789
50
94.3226695
51
115.5454341
0
ARC
8
front_labelLayer
10
106.8048537
20
84.5448928
40
9.3422013
50
89.9578964
51
94.7108942
0
ARC
8
front_labelLayer
10
106.8812826
20
82.6226921
40
11.2646142
50
80.5585289
51
90.3538282
0
ARC
8
front_labelLayer
10
107.58525
20
86.7003336
40
7.1267767
50
65.1094273
51
80.7638177
0
ARC
8
front_labelLayer
10
108.4081583
20
88.5230539
40
5.1270536
50
46.5584441
51
64.878241
0
ARC
8
front_labelLayer
10
108.4740164
20
88.7129176
40
4.9446054
50
19.3848867
51
45.5997049
0
ARC
8
front_labelLayer
10
105.6134217
20
87.6395712
40
7.9995389
50
6.9633542
51
19.8363504
0
ARC
8
front_labelLayer
10
101.2014152
20
87.0463726
40
12.4510348
50
359.7631566
51
7.2115504
0
LINE
8
front_labelLayer
10
128.1757812
20
77.060529
11
128.1757812
21
74.8777165
0
LINE
8
front_labelLayer
10
119.7195312
20
80.119904
11
119.7195312
21
91.326154
0
LINE
8
front_labelLayer
10
119.7195312
20
91.326154
11
117.0210937
21
91.326154
0
LINE
8
front_labelLayer
10
117.0210937
20
91.326154
11
117.0210937
21
92.701154
0
LINE
8
front_labelLayer
10
117.0210937
20
92.701154
11
119.7195312
21
93.8870915
0
LINE
8
front_labelLayer
10
119.7195312
20
93.8870915
11
120.9226562
21
97.9089665
0
LINE
8
front_labelLayer
10
120.9226562
20
97.9089665
11
122.5726562
21
97.9089665
0
LINE
8
front_labelLayer
10
122.5726562
20
97.9089665
11
122.5726562
21
93.5433415
0
LINE
8
front_labelLayer
10
122.5726562
20
93.5433415
11
128.0382812
21
93.5433415
0
LINE
8
front_labelLayer
10
128.0382812
20
93.5433415
11
128.0382812
21
91.326154
0
LINE
8
front_labelLayer
10
128.0382812
20
91.326154
11
122.5726562
21
91.326154
0
LINE
8
front_labelLayer
10
122.5726562
20
91.326154
11
122.5726562
21
80.2402165
0
ARC
8
front_labelLayer
10
125.6172227
20
86.086809
40
9.3700505
50
269.8803554
51
278.3028351
0
ARC
8
front_labelLayer
10
125.7062734
20
85.3588711
40
8.6368998
50
278.4156149
51
279.0081374
0
ARC
8
front_labelLayer
10
124.655054
20
92.074447
40
15.4342468
50
278.9590029
51
280.5104485
0
ARC
8
front_labelLayer
10
125.6570932
20
86.6979481
40
9.965171
50
280.4847274
51
282.6268567
0
ARC
8
front_labelLayer
10
126.5357474
20
82.7943707
40
5.9639309
50
282.5876717
51
285.5794623
0
ARC
8
front_labelLayer
10
126.9772918
20
81.1705744
40
4.2812205
50
285.7238489
51
286.2566867
0
ARC
8
front_labelLayer
10
126.9762534
20
77.4147847
40
2.8063468
50
287.9888175
51
295.3048215
0
ARC
8
front_labelLayer
10
126.2993746
20
79.4626617
40
4.9631713
50
283.3069397
51
288.1197528
0
ARC
8
front_labelLayer
10
125.5843432
20
82.4452937
40
8.0303053
50
280.0069837
51
283.3734964
0
ARC
8
front_labelLayer
10
125.1057582
20
85.042594
40
10.6712734
50
279.1862986
51
280.1142373
0
ARC
8
front_labelLayer
10
124.8122244
20
86.7121705
40
12.3663199
50
275.5260566
51
279.293925
0
ARC
8
front_labelLayer
10
125.1431785
20
83.2554074
40
8.8937524
50
270.8932385
51
275.5483778
0
ARC
8
front_labelLayer
10
125.1847696
20
81.6736598
40
7.3115683
50
270.0030301
51
270.7605882
0
ARC
8
front_labelLayer
10
125.0700244
20
81.8131507
40
7.4519487
50
253.784799
51
270.8852488
0
ARC
8
front_labelLayer
10
124.1871668
20
78.8022678
40
4.3143111
50
190.3817665
51
253.8772385
0
ARC
8
front_labelLayer
10
128.6870682
20
80.0189629
40
8.9681051
50
179.3550902
51
192.8477674
0
ARC
8
front_labelLayer
10
128.3177936
20
80.2042842
40
5.7452497
50
179.6416548
51
189.7505848
0
ARC
8
front_labelLayer
10
126.2896164
20
79.8425354
40
3.6851283
50
189.5479675
51
205.78734
0
ARC
8
front_labelLayer
10
125.4561188
20
79.4581867
40
2.7674798
50
206.1294613
51
221.4083637
0
ARC
8
front_labelLayer
10
125.3626528
20
79.3872676
40
2.6504856
50
221.5949201
51
262.3505189
0
ARC
8
front_labelLayer
10
125.5849217
20
80.5302459
40
3.8134882
50
261.3265986
51
270.1913305
0
LINE
8
left_outsideCutPath
10
179
20
164.5
11
179
21
187.5
0
LINE
8
left_outsideCutPath
10
179
20
155.5
11
179
21
146.5
0
LINE
8
left_outsideCutPath
10
179
20
137.5
11
179
21
128.5
0
LINE
8
left_outsideCutPath
10
179
20
119.5
11
179
21
110.5
0
LINE
8
left_outsideCutPath
10
179
20
101.5
11
179
21
92.5
0
LINE
8
left_outsideCutPath
10
179
20
83.5
11
179
21
74.5
0
LINE
8
left_outsideCutPath
10
179
20
65.5
11
179
21
56.5
0
LINE
8
left_outsideCutPath
10
179
20
47.5
11
179
21
38.5
0
LINE
8
left_outsideCutPath
10
179
20
29.5
11
179
21
20.5
0
LINE
8
left_outsideCutPath
10
179
20
11.5
11
179
21
0
0
LINE
8
left_outsideCutPath
10
179
20
0
11
184
21
0
0
LINE
8
left_outsideCutPath
10
184
20
0
11
184
21
3
0
LINE
8
left_outsideCutPath
10
184
20
3
11
193
21
3
0
LINE
8
left_outsideCutPath
10
193
20
3
11
193
21
0
0
LINE
8
left_outsideCutPath
10
193
20
0
11
202
21
0
0
LINE
8
left_outsideCutPath
10
202
20
0
11
202
21
3
0
LINE
8
left_outsideCutPath
10
202
20
3
11
211
21
3
0
LINE
8
left_outsideCutPath
10
211
20
3
11
211
21
0
0
LINE
8
left_outsideCutPath
10
211
20
0
11
220
21
0
0
LINE
8
left_outsideCutPath
10
220
20
0
11
220
21
3
0
LINE
8
left_outsideCutPath
10
220
20
3
11
229
21
3
0
LINE
8
left_outsideCutPath
10
229
20
3
11
229
21
0
0
LINE
8
left_outsideCutPath
10
229
20
0
11
238
21
0
0
LINE
8
left_outsideCutPath
10
238
20
0
11
238
21
3
0
LINE
8
left_outsideCutPath
10
238
20
3
11
247
21
3
0
LINE
8
left_outsideCutPath
10
247
20
3
11
247
21
0
0
LINE
8
left_outsideCutPath
10
247
20
0
11
252
21
0
0
LINE
8
left_outsideCutPath
10
252
20
0
11
252
21
11.5
0
LINE
8
left_outsideCutPath
10
252
20
11.5
11
255
21
11.5
0
LINE
8
left_outsideCutPath
10
255
20
8
11
255
21
20.5
0
LINE
8
left_outsideCutPath
10
255
20
20.5
11
252
21
20.5
0
LINE
8
left_outsideCutPath
10
252
20
20.5
11
252
21
29.5
0
LINE
8
left_outsideCutPath
10
252
20
29.5
11
255
21
29.5
0
LINE
8
left_outsideCutPath
10
255
20
26
11
255
21
38.5
0
LINE
8
left_outsideCutPath
10
255
20
38.5
11
252
21
38.5
0
LINE
8
left_outsideCutPath
10
252
20
38.5
11
252
21
47.5
0
LINE
8
left_outsideCutPath
10
252
20
47.5
11
255
21
47.5
0
LINE
8
left_outsideCutPath
10
255
20
44
11
255
21
56.5
0
LINE
8
left_outsideCutPath
10
255
20
56.5
11
252
21
56.5
0
LINE
8
left_outsideCutPath
10
252
20
56.5
11
252
21
65.5
0
LINE
8
left_outsideCutPath
10
252
20
65.5
11
255
21
65.5
0
LINE
8
left_outsideCutPath
10
255
20
62
11
255
21
74.5
0
LINE
8
left_outsideCutPath
10
255
20
74.5
11
252
21
74.5
0
LINE
8
left_outsideCutPath
10
252
20
74.5
11
252
21
83.5
0
LINE
8
left_outsideCutPath
10
252
20
83.5
11
255
21
83.5
0
LINE
8
left_outsideCutPath
10
255
20
83.5
11
255
21
96
0
LINE
8
left_outsideCutPath
10
255
20
92.5
11
252
21
92.5
0
LINE
8
left_outsideCutPath
10
252
20
92.5
11
252
21
101.5
0
LINE
8
left_outsideCutPath
10
252
20
101.5
11
255
21
101.5
0
LINE
8
left_outsideCutPath
10
255
20
101.5
11
255
21
114
0
LINE
8
left_outsideCutPath
10
255
20
110.5
11
252
21
110.5
0
LINE
8
left_outsideCutPath
10
252
20
110.5
11
252
21
119.5
0
LINE
8
left_outsideCutPath
10
252
20
119.5
11
255
21
119.5
0
LINE
8
left_outsideCutPath
10
255
20
119.5
11
255
21
132
0
LINE
8
left_outsideCutPath
10
255
20
128.5
11
252
21
128.5
0
LINE
8
left_outsideCutPath
10
252
20
128.5
11
252
21
137.5
0
LINE
8
left_outsideCutPath
10
252
20
137.5
11
255
21
137.5
0
LINE
8
left_outsideCutPath
10
255
20
137.5
11
255
21
150
0
LINE
8
left_outsideCutPath
10
255
20
146.5
11
252
21
146.5
0
LINE
8
left_outsideCutPath
10
252
20
146.5
11
252
21
155.5
0
LINE
8
left_outsideCutPath
10
252
20
155.5
11
255
21
155.5
0
LINE
8
left_outsideCutPath
10
255
20
155.5
11
255
21
164.5
0
LINE
8
left_outsideCutPath
10
255
20
164.5
11
252
21
164.5
0
LINE
8
left_outsideCutPath
10
252
20
164.5
11
252
21
187.5
0
LINE
8
left_outsideCutPath
10
247
20
176
11
252
21
176
0
LINE
8
left_outsideCutPath
10
247
20
173
11
247
21
179
0
LINE
8
left_outsideCutPath
10
247
20
173
11
238
21
173
0
LINE
8
left_outsideCutPath
10
238
20
173
11
238
21
179
0
LINE
8
left_outsideCutPath
10
229
20
176
11
238
21
176
0
LINE
8
left_outsideCutPath
10
229
20
173
11
229
21
179
0
LINE
8
left_outsideCutPath
10
229
20
173
11
220
21
173
0
LINE
8
left_outsideCutPath
10
220
20
173
11
220
21
179
0
LINE
8
left_outsideCutPath
10
211
20
176
11
220
21
176
0
LINE
8
left_outsideCutPath
10
211
20
173
11
211
21
179
0
LINE
8
left_outsideCutPath
10
211
20
173
11
202
21
173
0
LINE
8
left_outsideCutPath
10
202
20
173
11
202
21
179
0
LINE
8
left_outsideCutPath
10
193
20
176
11
202
21
176
0
LINE
8
left_outsideCutPath
10
193
20
173
11
193
21
179
0
LINE
8
left_outsideCutPath
10
193
20
173
11
184
21
173
0
LINE
8
left_outsideCutPath
10
184
20
173
11
184
21
179
0
LINE
8
left_outsideCutPath
10
179
20
176
11
184
21
176
0
LINE
8
left_labelLayer
10
205.7291504
20
94.0370325
11
205.7291504
21
82.0327356
0
LINE
8
left_labelLayer
10
205.7291504
20
82.0327356
11
204.4484863
21
82.0327356
0
LINE
8
left_labelLayer
10
204.4484863
20
82.0327356
11
204.4484863
21
94.0370325
0
LINE
8
left_labelLayer
10
204.4484863
20
94.0370325
11
205.7291504
21
94.0370325
0
LINE
8
left_labelLayer
10
215.1258301
20
86.8390833
11
215.1258301
21
86.0290247
0
LINE
8
left_labelLayer
10
215.1258301
20
86.0290247
11
209.301123
21
86.0290247
0
LINE
8
left_labelLayer
10
214.7632324
20
83.5679895
11
214.7632324
21
82.4261926
0
LINE
8
left_labelLayer
10
209.3319824
20
87.0705286
11
213.7525879
21
87.0705286
0
ARC
8
left_labelLayer
10
211.9746377
20
86.8548577
40
4.9765972
50
256.0087905
51
270.4848235
0
ARC
8
left_labelLayer
10
211.6122435
20
85.4479708
40
3.5238501
50
223.5465717
51
256.1957043
0
ARC
8
left_labelLayer
10
211.8121607
20
85.5932739
40
3.7689981
50
194.087729
51
223.0538132
0
ARC
8
left_labelLayer
10
213.6439446
20
86.0941983
40
5.6677593
50
181.3574627
51
194.4919854
0
ARC
8
left_labelLayer
10
215.2893931
20
86.1896016
40
7.3152235
50
179.9887625
51
181.7991824
0
ARC
8
left_labelLayer
10
214.698767
20
86.2361453
40
6.7247484
50
168.9539359
51
180.3843368
0
ARC
8
left_labelLayer
10
212.502484
20
86.6833456
40
4.4835087
50
149.407087
51
169.1853882
0
ARC
8
left_labelLayer
10
211.8905628
20
87.0066601
40
3.7923624
50
140.105593
51
148.906737
0
ARC
8
left_labelLayer
10
211.5146304
20
87.3532542
40
3.2817337
50
92.4762697
51
140.5386337
0
ARC
8
left_labelLayer
10
211.6821479
20
86.115359
40
4.5271431
50
89.9637804
51
93.9176565
0
ARC
8
left_labelLayer
10
211.7221229
20
86.740988
40
3.9016897
50
74.2125794
51
90.5450104
0
ARC
8
left_labelLayer
10
211.9664979
20
87.6413684
40
2.9688032
50
41.2064697
51
74.023273
0
ARC
8
left_labelLayer
10
211.5036991
20
87.2408502
40
3.5808383
50
11.5994199
51
41.1496041
0
ARC
8
left_labelLayer
10
209.9135278
20
86.8741269
40
5.2124201
50
359.6147915
51
12.033628
0
ARC
8
left_labelLayer
10
214.4402333
20
86.131714
40
5.1401361
50
181.1447275
51
190.8006856
0
ARC
8
left_labelLayer
10
212.6268273
20
85.7740605
40
3.2918529
50
190.6005591
51
206.0275477
0
ARC
8
left_labelLayer
10
211.824535
20
85.3947703
40
2.404519
50
206.2950149
51
222.5557887
0
ARC
8
left_labelLayer
10
211.7534444
20
85.3575491
40
2.327071
50
223.0645054
51
258.1401358
0
ARC
8
left_labelLayer
10
212.036456
20
86.5228779
40
3.5258869
50
257.5311816
51
270.4319479
0
ARC
8
left_labelLayer
10
212.039615
20
89.7609465
40
6.763896
50
270.1984048
51
292.2090356
0
ARC
8
left_labelLayer
10
211.7147872
20
90.6938102
40
7.7505057
50
291.8255014
51
293.161369
0
ARC
8
left_labelLayer
10
211.6992215
20
89.4775991
40
7.688335
50
287.9023262
51
293.4861409
0
ARC
8
left_labelLayer
10
212.2569467
20
87.7568408
40
5.8794507
50
281.9936005
51
287.885094
0
ARC
8
left_labelLayer
10
212.3921308
20
87.2709593
40
5.376175
50
275.9054263
51
281.6603888
0
ARC
8
left_labelLayer
10
212.1215445
20
89.7965593
40
7.9162171
50
271.9119636
51
275.9727344
0
ARC
8
left_labelLayer
10
212.0227776
20
92.3122446
40
10.4338075
50
269.9668896
51
271.99312
0
ARC
8
left_labelLayer
10
211.6450054
20
87.0457656
40
2.5244919
50
89.4422457
51
106.2089415
0
ARC
8
left_labelLayer
10
211.4931296
20
87.5995323
40
1.9503622
50
106.4657038
51
137.9176412
0
ARC
8
left_labelLayer
10
211.9285634
20
87.217149
40
2.5298187
50
138.0994808
51
160.5866242
0
ARC
8
left_labelLayer
10
213.0478393
20
86.8053872
40
3.722356
50
160.3353476
51
172.5315337
0
ARC
8
left_labelLayer
10
214.1500376
20
86.628788
40
4.8382633
50
172.1545137
51
174.7615158
0
ARC
8
left_labelLayer
10
209.3885927
20
87.0953183
40
4.3640656
50
359.6745347
51
8.9224324
0
ARC
8
left_labelLayer
10
210.9479845
20
87.349395
40
2.7841521
50
8.7342353
51
23.2772025
0
ARC
8
left_labelLayer
10
211.6882782
20
87.6601513
40
1.9813236
50
23.4821565
51
39.7071945
0
ARC
8
left_labelLayer
10
211.8701236
20
87.7962301
40
1.7545282
50
40.0822977
51
80.6243273
0
ARC
8
left_labelLayer
10
211.6829478
20
86.9382254
40
2.6319466
50
79.646828
51
90.2910075
0
LINE
8
left_labelLayer
10
221.1202637
20
90.4882044
11
221.1202637
21
89.4929895
0
LINE
8
left_labelLayer
10
221.1202637
20
89.4929895
11
218.9678222
21
89.4929895
0
LINE
8
left_labelLayer
10
218.9678222
20
89.4929895
11
218.9678222
21
82.0327356
0
LINE
8
left_labelLayer
10
218.9678222
20
82.0327356
11
217.6871582
21
82.0327356
0
LINE
8
left_labelLayer
10
217.6871582
20
82.0327356
11
217.6871582
21
89.4929895
0
LINE
8
left_labelLayer
10
217.6871582
20
89.4929895
11
216.1750488
21
89.4929895
0
LINE
8
left_labelLayer
10
216.1750488
20
89.4929895
11
216.1750488
21
90.0716028
0
LINE
8
left_labelLayer
10
216.1750488
20
90.0716028
11
217.6871582
21
90.5344934
0
LINE
8
left_labelLayer
10
217.6871582
20
90.5344934
11
217.6871582
21
91.0050989
0
LINE
8
left_labelLayer
10
221.9843262
20
93.8518762
11
221.6525879
21
92.825802
0
LINE
8
left_labelLayer
10
218.9678222
20
91.0359583
11
218.9678222
21
90.4882044
0
LINE
8
left_labelLayer
10
218.9678222
20
90.4882044
11
221.1202637
21
90.4882044
0
ARC
8
left_labelLayer
10
222.8772447
20
91.0647676
40
5.1904295
50
167.5776122
51
180.6586817
0
ARC
8
left_labelLayer
10
220.4365357
20
91.6337978
40
2.6846286
50
141.7434021
51
168.2321981
0
ARC
8
left_labelLayer
10
220.039136
20
91.8412103
40
2.2456871
50
98.2551456
51
139.6203341
0
ARC
8
left_labelLayer
10
220.3880581
20
90.2293222
40
3.8926383
50
89.669704
51
99.9314286
0
ARC
8
left_labelLayer
10
220.3890288
20
89.9979013
40
4.1240503
50
81.5641028
51
89.701725
0
ARC
8
left_labelLayer
10
220.099098
20
87.9751933
40
6.1674156
50
75.9740132
51
81.6564736
0
ARC
8
left_labelLayer
10
219.6015568
20
85.9115292
40
8.2901567
50
73.2963521
51
76.0945897
0
ARC
8
left_labelLayer
10
219.7268452
20
86.9125465
40
6.2189288
50
71.9613627
51
76.5918114
0
ARC
8
left_labelLayer
10
220.2093276
20
88.9592783
40
4.1161074
50
76.5183279
51
83.0216712
0
ARC
8
left_labelLayer
10
220.3773882
20
90.310785
40
2.7541952
50
83.0760879
51
89.7926912
0
ARC
8
left_labelLayer
10
220.3718579
20
91.3379155
40
1.7271162
50
89.4859387
51
103.4197521
0
ARC
8
left_labelLayer
10
220.2161454
20
91.9361457
40
1.1091538
50
102.7677349
51
144.3380464
0
ARC
8
left_labelLayer
10
220.5298368
20
91.734313
40
1.4818084
50
145.0688355
51
162.1801937
0
ARC
8
left_labelLayer
10
221.605406
20
91.3724381
40
2.6165633
50
161.843783
51
171.7846638
0
ARC
8
left_labelLayer
10
223.3595961
20
91.1089634
40
4.3904125
50
171.6527527
51
178.4383867
0
ARC
8
left_labelLayer
10
225.0142336
20
91.0384035
40
6.0464119
50
178.1973008
51
180.0231706
0
LINE
8
left_labelLayer
10
226.5515137
20
83.0896692
11
226.5515137
21
82.109884
0
LINE
8
left_labelLayer
10
222.7558105
20
84.4629114
11
222.7558105
21
89.4929895
0
LINE
8
left_labelLayer
10
222.7558105
20
89.4929895
11
221.5445801
21
89.4929895
0
LINE
8
left_labelLayer
10
221.5445801
20
89.4929895
11
221.5445801
21
90.110177
0
LINE
8
left_labelLayer
10
221.5445801
20
90.110177
11
222.7558105
21
90.6425012
0
LINE
8
left_labelLayer
10
222.7558105
20
90.6425012
11
223.2958496
21
92.4477747
0
LINE
8
left_labelLayer
10
223.2958496
20
92.4477747
11
224.0364746
21
92.4477747
0
LINE
8
left_labelLayer
10
224.0364746
20
92.4477747
11
224.0364746
21
90.4882044
0
LINE
8
left_labelLayer
10
224.0364746
20
90.4882044
11
226.4897949
21
90.4882044
0
LINE
8
left_labelLayer
10
226.4897949
20
90.4882044
11
226.4897949
21
89.4929895
0
LINE
8
left_labelLayer
10
226.4897949
20
89.4929895
11
224.0364746
21
89.4929895
0
LINE
8
left_labelLayer
10
224.0364746
20
89.4929895
11
224.0364746
21
84.5169153
0
ARC
8
left_labelLayer
10
225.4030684
20
87.1412457
40
4.2058825
50
269.8803734
51
278.3028378
0
ARC
8
left_labelLayer
10
225.4434128
20
86.8121108
40
3.8743791
50
278.4153382
51
279.0082295
0
ARC
8
left_labelLayer
10
224.9712172
20
89.8286779
40
6.9276766
50
278.9590071
51
280.5104964
0
ARC
8
left_labelLayer
10
225.4208658
20
87.416033
40
4.47349
50
280.48488
51
282.626776
0
ARC
8
left_labelLayer
10
225.8153756
20
85.6633243
40
2.6769322
50
282.5876608
51
285.5795179
0
ARC
8
left_labelLayer
10
226.0150774
20
84.929234
40
1.9161844
50
285.7228661
51
286.2572333
0
ARC
8
left_labelLayer
10
226.013089
20
83.2486829
40
1.2596682
50
287.9888095
51
295.3048065
0
ARC
8
left_labelLayer
10
225.7092683
20
84.1678854
40
2.2277724
50
283.3068869
51
288.1197318
0
ARC
8
left_labelLayer
10
225.3883108
20
85.5067031
40
3.6045207
50
280.0069672
51
283.3734717
0
ARC
8
left_labelLayer
10
225.173421
20
86.6729487
40
4.7903733
50
279.1863323
51
280.1141884
0
ARC
8
left_labelLayer
10
225.0417449
20
87.4218693
40
5.5507199
50
275.5260282
51
279.2939451
0
ARC
8
left_labelLayer
10
225.1902922
20
85.870243
40
3.9920002
50
270.8932045
51
275.5484394
0
ARC
8
left_labelLayer
10
225.2089656
20
85.1608615
40
3.2824226
50
270.0028834
51
270.7603202
0
ARC
8
left_labelLayer
10
225.1574521
20
85.2229474
40
3.3449079
50
253.7847995
51
270.8852541
0
ARC
8
left_labelLayer
10
224.7611696
20
83.8714724
40
1.9365373
50
190.3817658
51
253.8772404
0
ARC
8
left_labelLayer
10
226.7810097
20
84.4176021
40
4.0254541
50
179.3550828
51
192.847767
0
ARC
8
left_labelLayer
10
226.6152401
20
84.5007855
40
2.5788159
50
179.6416283
51
189.7506278
0
ARC
8
left_labelLayer
10
225.7048774
20
84.3384089
40
1.6541144
50
189.5479346
51
205.7873633
0
ARC
8
left_labelLayer
10
225.3307501
20
84.1658869
40
1.2422141
50
206.1294313
51
221.4084191
0
ARC
8
left_labelLayer
10
225.2888023
20
84.1340573
40
1.1897063
50
221.5949203
51
262.350529
0
ARC
8
left_labelLayer
10
225.3885703
20
84.6470963
40
1.7117334
50
261.3266075
51
270.1913535
0
LINE
8
top_outsideCutPath
10
258
20
76
11
258
21
71
0
LINE
8
top_outsideCutPath
10
258
20
71
11
255
21
71
0
LINE
8
top_outsideCutPath
10
255
20
62
11
258
21
62
0
LINE
8
top_outsideCutPath
10
258
20
62
11
258
21
53
0
LINE
8
top_outsideCutPath
10
258
20
53
11
255
21
53
0
LINE
8
top_outsideCutPath
10
255
20
44
11
258
21
44
0
LINE
8
top_outsideCutPath
10
258
20
44
11
258
21
35
0
LINE
8
top_outsideCutPath
10
258
20
35
11
255
21
35
0
LINE
8
top_outsideCutPath
10
255
20
26
11
258
21
26
0
LINE
8
top_outsideCutPath
10
258
20
26
11
258
21
17
0
LINE
8
top_outsideCutPath
10
258
20
17
11
255
21
17
0
LINE
8
top_outsideCutPath
10
255
20
8
11
258
21
8
0
LINE
8
top_outsideCutPath
10
258
20
8
11
258
21
3
0
LINE
8
top_outsideCutPath
10
258
20
3
11
266.5
21
3
0
LINE
8
top_outsideCutPath
10
266.5
20
3
11
266.5
21
0
0
LINE
8
top_outsideCutPath
10
266.5
20
0
11
275.5
21
0
0
LINE
8
top_outsideCutPath
10
275.5
20
0
11
275.5
21
3
0
LINE
8
top_outsideCutPath
10
275.5
20
3
11
284.5
21
3
0
LINE
8
top_outsideCutPath
10
284.5
20
3
11
284.5
21
0
0
LINE
8
top_outsideCutPath
10
284.5
20
0
11
293.5
21
0
0
LINE
8
top_outsideCutPath
10
293.5
20
0
11
293.5
21
3
0
LINE
8
top_outsideCutPath
10
293.5
20
3
11
302.5
21
3
0
LINE
8
top_outsideCutPath
10
302.5
20
3
11
302.5
21
0
0
LINE
8
top_outsideCutPath
10
302.5
20
0
11
311.5
21
0
0
LINE
8
top_outsideCutPath
10
311.5
20
0
11
311.5
21
3
0
LINE
8
top_outsideCutPath
10
311.5
20
3
11
320.5
21
3
0
LINE
8
top_outsideCutPath
10
320.5
20
3
11
320.5
21
0
0
LINE
8
top_outsideCutPath
10
320.5
20
0
11
329.5
21
0
0
LINE
8
top_outsideCutPath
10
329.5
20
0
11
329.5
21
3
0
LINE
8
top_outsideCutPath
10
329.5
20
3
11
338.5
21
3
0
LINE
8
top_outsideCutPath
10
338.5
20
3
11
338.5
21
0
0
LINE
8
top_outsideCutPath
10
338.5
20
0
11
347.5
21
0
0
LINE
8
top_outsideCutPath
10
347.5
20
0
11
347.5
21
3
0
LINE
8
top_outsideCutPath
10
347.5
20
3
11
356.5
21
3
0
LINE
8
top_outsideCutPath
10
356.5
20
3
11
356.5
21
0
0
LINE
8
top_outsideCutPath
10
356.5
20
0
11
365.5
21
0
0
LINE
8
top_outsideCutPath
10
365.5
20
0
11
365.5
21
3
0
LINE
8
top_outsideCutPath
10
365.5
20
3
11
374.5
21
3
0
LINE
8
top_outsideCutPath
10
374.5
20
3
11
374.5
21
0
0
LINE
8
top_outsideCutPath
10
374.5
20
0
11
383.5
21
0
0
LINE
8
top_outsideCutPath
10
383.5
20
0
11
383.5
21
3
0
LINE
8
top_outsideCutPath
10
383.5
20
3
11
392.5
21
3
0
LINE
8
top_outsideCutPath
10
392.5
20
3
11
392.5
21
0
0
LINE
8
top_outsideCutPath
10
392.5
20
0
11
401.5
21
0
0
LINE
8
top_outsideCutPath
10
401.5
20
0
11
401.5
21
3
0
LINE
8
top_outsideCutPath
10
401.5
20
3
11
410.5
21
3
0
LINE
8
top_outsideCutPath
10
410.5
20
3
11
410.5
21
0
0
LINE
8
top_outsideCutPath
10
410.5
20
0
11
419.5
21
0
0
LINE
8
top_outsideCutPath
10
419.5
20
0
11
419.5
21
3
0
LINE
8
top_outsideCutPath
10
419.5
20
3
11
428
21
3
0
LINE
8
top_outsideCutPath
10
428
20
3
11
428
21
8
0
LINE
8
top_outsideCutPath
10
428
20
8
11
431
21
8
0
LINE
8
top_outsideCutPath
10
431
20
8
11
431
21
17
0
LINE
8
top_outsideCutPath
10
431
20
17
11
428
21
17
0
LINE
8
top_outsideCutPath
10
428
20
17
11
428
21
26
0
LINE
8
top_outsideCutPath
10
428
20
26
11
431
21
26
0
LINE
8
top_outsideCutPath
10
431
20
26
11
431
21
35
0
LINE
8
top_outsideCutPath
10
431
20
35
11
428
21
35
0
LINE
8
top_outsideCutPath
10
428
20
35
11
428
21
44
0
LINE
8
top_outsideCutPath
10
428
20
44
11
431
21
44
0
LINE
8
top_outsideCutPath
10
431
20
44
11
431
21
53
0
LINE
8
top_outsideCutPath
10
431
20
53
11
428
21
53
0
LINE
8
top_outsideCutPath
10
428
20
53
11
428
21
62
0
LINE
8
top_outsideCutPath
10
428
20
62
11
431
21
62
0
LINE
8
top_outsideCutPath
10
431
20
62
11
431
21
71
0
LINE
8
top_outsideCutPath
10
431
20
71
11
428
21
71
0
LINE
8
top_outsideCutPath
10
428
20
71
11
428
21
76
0
LINE
8
top_outsideCutPath
10
428
20
76
11
419.5
21
76
0
LINE
8
top_outsideCutPath
10
419.5
20
76
11
419.5
21
82
0
LINE
8
top_outsideCutPath
10
410.5
20
79
11
419.5
21
79
0
LINE
8
top_outsideCutPath
10
410.5
20
76
11
410.5
21
82
0
LINE
8
top_outsideCutPath
10
410.5
20
76
11
401.5
21
76
0
LINE
8
top_outsideCutPath
10
401.5
20
76
11
401.5
21
82
0
LINE
8
top_outsideCutPath
10
392.5
20
79
11
401.5
21
79
0
LINE
8
top_outsideCutPath
10
392.5
20
76
11
392.5
21
82
0
LINE
8
top_outsideCutPath
10
392.5
20
76
11
383.5
21
76
0
LINE
8
top_outsideCutPath
10
383.5
20
76
11
383.5
21
82
0
LINE
8
top_outsideCutPath
10
374.5
20
79
11
383.5
21
79
0
LINE
8
top_outsideCutPath
10
374.5
20
76
11
374.5
21
82
0
LINE
8
top_outsideCutPath
10
374.5
20
76
11
365.5
21
76
0
LINE
8
top_outsideCutPath
10
365.5
20
76
11
365.5
21
82
0
LINE
8
top_outsideCutPath
10
356.5
20
79
11
365.5
21
79
0
LINE
8
top_outsideCutPath
10
356.5
20
76
11
356.5
21
82
0
LINE
8
top_outsideCutPath
10
356.5
20
76
11
347.5
21
76
0
LINE
8
top_outsideCutPath
10
347.5
20
76
11
347.5
21
82
0
LINE
8
top_outsideCutPath
10
338.5
20
79
11
347.5
21
79
0
LINE
8
top_outsideCutPath
10
338.5
20
76
11
338.5
21
82
0
LINE
8
top_outsideCutPath
10
338.5
20
76
11
329.5
21
76
0
LINE
8
top_outsideCutPath
10
329.5
20
76
11
329.5
21
82
0
LINE
8
top_outsideCutPath
10
320.5
20
79
11
329.5
21
79
0
LINE
8
top_outsideCutPath
10
320.5
20
76
11
320.5
21
82
0
LINE
8
top_outsideCutPath
10
320.5
20
76
11
311.5
21
76
0
LINE
8
top_outsideCutPath
10
311.5
20
76
11
311.5
21
82
0
LINE
8
top_outsideCutPath
10
302.5
20
79
11
311.5
21
79
0
LINE
8
top_outsideCutPath
10
302.5
20
76
11
302.5
21
82
0
LINE
8
top_outsideCutPath
10
302.5
20
76
11
293.5
21
76
0
LINE
8
top_outsideCutPath
10
293.5
20
76
11
293.5
21
82
0
LINE
8
top_outsideCutPath
10
284.5
20
79
11
293.5
21
79
0
LINE
8
top_outsideCutPath
10
284.5
20
76
11
284.5
21
82
0
LINE
8
top_outsideCutPath
10
284.5
20
76
11
275.5
21
76
0
LINE
8
top_outsideCutPath
10
275.5
20
76
11
275.5
21
82
0
LINE
8
top_outsideCutPath
10
266.5
20
79
11
275.5
21
79
0
LINE
8
top_outsideCutPath
10
266.5
20
76
11
266.5
21
82
0
LINE
8
top_outsideCutPath
10
266.5
20
76
11
258
21
76
0
LINE
8
top_labelLayer
10
336.1645831
20
37.2472656
11
336.1645831
21
36.2674805
0
LINE
8
top_labelLayer
10
332.36888
20
38.6205078
11
332.36888
21
43.6505859
0
LINE
8
top_labelLayer
10
332.36888
20
43.6505859
11
331.1576495
21
43.6505859
0
LINE
8
top_labelLayer
10
331.1576495
20
43.6505859
11
331.1576495
21
44.2677734
0
LINE
8
top_labelLayer
10
331.1576495
20
44.2677734
11
332.36888
21
44.8000977
0
LINE
8
top_labelLayer
10
332.36888
20
44.8000977
11
332.908919
21
46.6053711
0
LINE
8
top_labelLayer
10
332.908919
20
46.6053711
11
333.649544
21
46.6053711
0
LINE
8
top_labelLayer
10
333.649544
20
46.6053711
11
333.649544
21
44.6458008
0
LINE
8
top_labelLayer
10
333.649544
20
44.6458008
11
336.1028644
21
44.6458008
0
LINE
8
top_labelLayer
10
336.1028644
20
44.6458008
11
336.1028644
21
43.6505859
0
LINE
8
top_labelLayer
10
336.1028644
20
43.6505859
11
333.649544
21
43.6505859
0
LINE
8
top_labelLayer
10
333.649544
20
43.6505859
11
333.649544
21
38.6745117
0
ARC
8
top_labelLayer
10
335.0161379
20
41.2988421
40
4.2058825
50
269.8803734
51
278.3028378
0
ARC
8
top_labelLayer
10
335.0564822
20
40.9697072
40
3.8743791
50
278.4153382
51
279.0082295
0
ARC
8
top_labelLayer
10
334.5842866
20
43.9862743
40
6.9276766
50
278.9590071
51
280.5104964
0
ARC
8
top_labelLayer
10
335.0339353
20
41.5736294
40
4.47349
50
280.48488
51
282.626776
0
ARC
8
top_labelLayer
10
335.428445
20
39.8209207
40
2.6769322
50
282.5876608
51
285.5795179
0
ARC
8
top_labelLayer
10
335.6281469
20
39.0868304
40
1.9161844
50
285.7228661
51
286.2572333
0
ARC
8
top_labelLayer
10
335.6261584
20
37.4062794
40
1.2596682
50
287.9888095
51
295.3048065
0
ARC
8
top_labelLayer
10
335.3223378
20
38.3254819
40
2.2277724
50
283.3068869
51
288.1197318
0
ARC
8
top_labelLayer
10
335.0013803
20
39.6642995
40
3.6045207
50
280.0069672
51
283.3734717
0
ARC
8
top_labelLayer
10
334.7864905
20
40.8305451
40
4.7903733
50
279.1863323
51
280.1141884
0
ARC
8
top_labelLayer
10
334.6548144
20
41.5794657
40
5.5507199
50
275.5260282
51
279.2939451
0
ARC
8
top_labelLayer
10
334.8033617
20
40.0278394
40
3.9920002
50
270.8932045
51
275.5484394
0
ARC
8
top_labelLayer
10
334.8220351
20
39.318458
40
3.2824226
50
270.0028834
51
270.7603202
0
ARC
8
top_labelLayer
10
334.7705215
20
39.3805438
40
3.3449079
50
253.7847995
51
270.8852541
0
ARC
8
top_labelLayer
10
334.3742391
20
38.0290688
40
1.9365373
50
190.3817658
51
253.8772404
0
ARC
8
top_labelLayer
10
336.3940792
20
38.5751985
40
4.0254541
50
179.3550828
51
192.847767
0
ARC
8
top_labelLayer
10
336.2283095
20
38.6583819
40
2.5788159
50
179.6416283
51
189.7506278
0
ARC
8
top_labelLayer
10
335.3179468
20
38.4960053
40
1.6541144
50
189.5479346
51
205.7873633
0
ARC
8
top_labelLayer
10
334.9438196
20
38.3234833
40
1.2422141
50
206.1294313
51
221.4084191
0
ARC
8
top_labelLayer
10
334.9018718
20
38.2916538
40
1.1897063
50
221.5949203
51
262.350529
0
ARC
8
top_labelLayer
10
335.0016398
20
38.8046927
40
1.7117334
50
261.3266075
51
270.1913535
0
ARC
8
top_labelLayer
10
338.5373758
20
40.3811842
40
6.6151506
50
349.1761926
51
0.3862712
0
ARC
8
top_labelLayer
10
340.7645334
20
39.9371968
40
4.3442761
50
330.2507194
51
349.4116379
0
ARC
8
top_labelLayer
10
341.4499544
20
39.5809411
40
3.5725468
50
318.143964
51
329.7566404
0
ARC
8
top_labelLayer
10
341.5736545
20
39.4818071
40
3.4142748
50
278.8959105
51
317.9979182
0
ARC
8
top_labelLayer
10
341.254908
20
41.0089523
40
4.9729645
50
269.7502996
51
279.8033174
0
ARC
8
top_labelLayer
10
341.2032149
20
40.1484979
40
4.1125723
50
253.5436966
51
270.4182457
0
ARC
8
top_labelLayer
10
341.0663192
20
39.6189449
40
3.5659807
50
238.8115756
51
253.2428182
0
ARC
8
top_labelLayer
10
341.0221343
20
39.5300869
40
3.4670937
50
207.794706
51
238.67579
0
ARC
8
top_labelLayer
10
341.6562192
20
39.9184234
40
4.2093758
50
205.6560646
51
208.4460965
0
ARC
8
top_labelLayer
10
342.1444477
20
40.1218402
40
4.7376254
50
188.9102629
51
205.317128
0
ARC
8
top_labelLayer
10
343.7901327
20
40.4005643
40
6.406654
50
179.7744803
51
189.0932826
0
ARC
8
top_labelLayer
10
344.0328874
20
40.4708195
40
6.6495115
50
169.2442994
51
180.3880766
0
ARC
8
top_labelLayer
10
341.7747613
20
40.9171689
40
4.3477916
50
150.7111396
51
169.4695461
0
ARC
8
top_labelLayer
10
341.0539029
20
41.2873569
40
3.5381093
50
138.1759503
51
150.2287423
0
ARC
8
top_labelLayer
10
340.9339918
20
41.3793737
40
3.3874101
50
99.1759379
51
137.9832693
0
ARC
8
top_labelLayer
10
341.2640299
20
39.8261747
40
4.9739772
50
89.7326468
51
100.0759779
0
ARC
8
top_labelLayer
10
341.3299912
20
40.4969509
40
4.3033591
50
73.5222768
51
90.5692159
0
ARC
8
top_labelLayer
10
341.5823581
20
41.4138679
40
3.3525666
50
41.1445641
51
73.2133818
0
ARC
8
top_labelLayer
10
341.1006098
20
40.9998121
40
3.9877842
50
13.5014412
51
41.0703366
0
ARC
8
top_labelLayer
10
339.2393808
20
40.5127547
40
5.9114186
50
1.1277249
51
13.8799929
0
ARC
8
top_labelLayer
10
337.6359619
20
40.4268438
40
7.5164142
50
359.9919007
51
1.5419263
0
ARC
8
top_labelLayer
10
345.1956488
20
40.3924995
40
6.4852526
50
179.7059619
51
187.9160838
0
ARC
8
top_labelLayer
10
342.8170611
20
40.0508171
40
4.082288
50
187.7639253
51
200.0976932
0
ARC
8
top_labelLayer
10
341.5067077
20
39.5707019
40
2.6867465
50
200.0846002
51
216.913166
0
ARC
8
top_labelLayer
10
341.0282113
20
39.2290328
40
2.0990066
50
217.3009559
51
261.7099079
0
ARC
8
top_labelLayer
10
341.2503455
20
40.2890357
40
3.180667
50
260.5033211
51
270.2476779
0
ARC
8
top_labelLayer
10
341.2927443
20
40.0829112
40
2.9746507
50
269.4481633
51
284.7255847
0
ARC
8
top_labelLayer
10
341.5282298
20
39.2095738
40
2.0701487
50
284.56624
51
322.6333854
0
ARC
8
top_labelLayer
10
340.9776518
20
39.6073413
40
2.7492002
50
323.0089357
51
342.639056
0
ARC
8
top_labelLayer
10
339.4028786
20
40.1220231
40
4.4058607
50
342.361567
51
353.7537472
0
ARC
8
top_labelLayer
10
337.0795488
20
40.4020668
40
6.7459157
50
353.5363277
51
0.2014169
0
ARC
8
top_labelLayer
10
337.4355354
20
40.4583953
40
6.3899708
50
359.7075644
51
7.8972713
0
ARC
8
top_labelLayer
10
339.7757256
20
40.7938836
40
4.0258942
50
7.7439868
51
20.0690293
0
ARC
8
top_labelLayer
10
341.0797614
20
41.2724157
40
2.6368311
50
20.0257227
51
37.4350445
0
ARC
8
top_labelLayer
10
341.5124362
20
41.5794353
40
2.106731
50
37.9577577
51
80.4006247
0
ARC
8
top_labelLayer
10
341.2665636
20
40.4823758
40
3.2299784
50
79.3453519
51
90.3174988
0
ARC
8
top_labelLayer
10
341.2210353
20
40.6646026
40
3.0478273
50
89.4805828
51
103.8805121
0
ARC
8
top_labelLayer
10
340.9649397
20
41.6398124
40
2.0397114
50
103.4685279
51
142.3118788
0
ARC
8
top_labelLayer
10
341.4628114
20
41.2896744
40
2.6479044
50
142.9025798
51
162.3749684
0
ARC
8
top_labelLayer
10
343.0316011
20
40.7668783
40
4.3014111
50
162.0653074
51
173.1674961
0
ARC
8
top_labelLayer
10
345.4777672
20
40.4548837
40
6.7673481
50
173.0086209
51
180.2463972
0
LINE
8
top_labelLayer
10
348.6780597
20
37.278125
11
348.5854815
21
37.278125
0
LINE
8
top_labelLayer
10
348.6780597
20
35.8740234
11
348.6780597
21
32.3946289
0
LINE
8
top_labelLayer
10
348.6780597
20
32.3946289
11
347.3973956
21
32.3946289
0
LINE
8
top_labelLayer
10
347.3973956
20
32.3946289
11
347.3973956
21
44.6458008
0
LINE
8
top_labelLayer
10
347.3973956
20
44.6458008
11
348.4388995
21
44.6458008
0
LINE
8
top_labelLayer
10
348.4388995
20
44.6458008
11
348.6163409
21
43.4885742
0
LINE
8
top_labelLayer
10
348.6163409
20
43.4885742
11
348.6780597
21
43.4885742
0
LINE
8
top_labelLayer
10
348.6780597
20
40.7112305
11
348.6780597
21
40.4257813
0
ARC
8
top_labelLayer
10
351.3103694
20
39.9205085
40
3.8845334
50
255.7755448
51
270.3185448
0
ARC
8
top_labelLayer
10
351.1995137
20
39.4279881
40
3.379901
50
245.9801414
51
255.5455781
0
ARC
8
top_labelLayer
10
350.9848026
20
38.9286782
40
2.8364393
50
215.5850124
51
245.8361638
0
ARC
8
top_labelLayer
10
336.561266
20
35.7586707
40
12.1198392
50
2.9503223
51
7.202076
0
ARC
8
top_labelLayer
10
338.5222255
20
35.8683867
40
10.1558355
50
0.0318007
51
2.9015795
0
ARC
8
top_labelLayer
10
351.4991016
20
41.5073549
40
3.4472464
50
132.3565001
51
144.9196106
0
ARC
8
top_labelLayer
10
350.9710209
20
42.083474
40
2.6657241
50
115.4006383
51
132.3118188
0
ARC
8
top_labelLayer
10
351.1770065
20
41.5820231
40
3.2071878
50
97.7066188
51
114.88216
0
ARC
8
top_labelLayer
10
351.3208707
20
40.6489979
40
4.1511146
50
89.8468577
51
97.947411
0
ARC
8
top_labelLayer
10
351.3716014
20
40.8747284
40
3.9255694
50
74.1923667
51
90.5785109
0
ARC
8
top_labelLayer
10
351.6432287
20
41.8621544
40
2.9015026
50
38.0523481
51
74.0417298
0
ARC
8
top_labelLayer
10
350.8940321
20
41.2879284
40
3.84541
50
16.3355991
51
37.9090476
0
ARC
8
top_labelLayer
10
348.9258854
20
40.6817264
40
5.9046734
50
4.5766442
51
16.6088803
0
ARC
8
top_labelLayer
10
346.5028358
20
40.4402866
40
8.3393967
50
359.9003408
51
4.9018165
0
ARC
8
top_labelLayer
10
347.3335212
20
40.3814821
40
7.5088293
50
350.6562704
51
0.3380244
0
ARC
8
top_labelLayer
10
349.9512179
20
39.9362392
40
4.8535971
50
335.8306015
51
350.8254829
0
ARC
8
top_labelLayer
10
351.1026981
20
39.4392447
40
3.5996146
50
321.3161537
51
335.5436162
0
ARC
8
top_labelLayer
10
351.5429183
20
39.080533
40
3.0317767
50
274.064005
51
321.408098
0
ARC
8
top_labelLayer
10
351.3378335
20
40.3796148
40
4.3435838
50
269.9226007
51
275.548175
0
ARC
8
top_labelLayer
10
351.1204309
20
40.0223179
40
3.6900811
50
89.5904136
51
100.3501903
0
ARC
8
top_labelLayer
10
350.8573011
20
41.4046414
40
2.2829999
50
100.0868171
51
118.191799
0
ARC
8
top_labelLayer
10
350.5877445
20
41.9303634
40
1.6923329
50
118.5569264
51
141.0243373
0
ARC
8
top_labelLayer
10
350.9984922
20
41.6406274
40
2.1941445
50
141.8890171
51
160.5973145
0
ARC
8
top_labelLayer
10
352.4420265
20
41.1109513
40
3.7317111
50
160.2895558
51
171.245309
0
ARC
8
top_labelLayer
10
354.8154864
20
40.728274
40
6.1357866
50
171.0868627
51
178.324761
0
ARC
8
top_labelLayer
10
356.8286166
20
40.632606
40
8.1509363
50
178.0662579
51
179.4473129
0
ARC
8
top_labelLayer
10
357.1456629
20
40.3927167
40
8.4676677
50
179.7762707
51
185.7075136
0
ARC
8
top_labelLayer
10
353.8071302
20
40.0487296
40
5.1114864
50
185.5924628
51
194.2050822
0
ARC
8
top_labelLayer
10
351.668551
20
39.4936934
40
2.9021253
50
193.9430562
51
208.0218325
0
ARC
8
top_labelLayer
10
350.8032598
20
39.0534963
40
1.9315486
50
208.5536563
51
217.5605439
0
ARC
8
top_labelLayer
10
350.7327639
20
39.0241752
40
1.8578965
50
218.1690465
51
253.8047143
0
ARC
8
top_labelLayer
10
351.0773664
20
40.0866175
40
2.9744924
50
253.1382307
51
266.848329
0
ARC
8
top_labelLayer
10
351.1739999
20
41.2261615
40
4.1177648
50
266.3775185
51
270.0510528
0
ARC
8
top_labelLayer
10
351.2068301
20
39.2660725
40
2.1578711
50
269.2256916
51
292.0430271
0
ARC
8
top_labelLayer
10
351.2359441
20
39.0925603
40
1.9864816
50
293.1429821
51
324.1353749
0
ARC
8
top_labelLayer
10
350.8038977
20
39.4584231
40
2.5513311
50
323.1613007
51
325.0155089
0
ARC
8
top_labelLayer
10
350.3401538
20
39.7460252
40
3.0963256
50
325.5753741
51
344.1504738
0
ARC
8
top_labelLayer
10
348.7378713
20
40.2196768
40
4.7670871
50
343.9336245
51
355.1137406
0
ARC
8
top_labelLayer
10
346.6925072
20
40.4272209
40
6.8227737
50
354.8402271
51
0.1174844
0
ARC
8
top_labelLayer
10
347.0527156
20
40.4738264
40
6.4626334
50
359.7108399
51
7.8610239
0
ARC
8
top_labelLayer
10
349.4025434
20
40.8087852
40
4.0890882
50
7.7149707
51
19.8859852
0
ARC
8
top_labelLayer
10
350.6948726
20
41.2755826
40
2.7150381
50
19.8991184
51
35.8980074
0
ARC
8
top_labelLayer
10
351.2713095
20
41.7121308
40
1.9921822
50
35.4481701
51
85.2266546
0
ARC
8
top_labelLayer
10
351.1508903
20
40.9569776
40
2.75533
50
84.0379105
51
90.0848541
0
LINE
8
back_outsideCutPath
10
0
20
352
11
0
21
340.5
0
LINE
8
back_outsideCutPath
10
0
20
340.5
11
3
21
340.5
0
LINE
8
back_outsideCutPath
10
3
20
340.5
11
3
21
331.5
0
LINE
8
back_outsideCutPath
10
3
20
331.5
11
0
21
331.5
0
LINE
8
back_outsideCutPath
10
0
20
331.5
11
0
21
322.5
0
LINE
8
back_outsideCutPath
10
0
20
322.5
11
3
21
322.5
0
LINE
8
back_outsideCutPath
10
3
20
322.5
11
3
21
313.5
0
LINE
8
back_outsideCutPath
10
3
20
313.5
11
0
21
313.5
0
LINE
8
back_outsideCutPath
10
0
20
313.5
11
0
21
304.5
0
LINE
8
back_outsideCutPath
10
0
20
304.5
11
3
21
304.5
0
LINE
8
back_outsideCutPath
10
3
20
304.5
11
3
21
295.5
0
LINE
8
back_outsideCutPath
10
3
20
295.5
11
0
21
295.5
0
LINE
8
back_outsideCutPath
10
0
20
295.5
11
0
21
286.5
0
LINE
8
back_outsideCutPath
10
0
20
286.5
11
3
21
286.5
0
LINE
8
back_outsideCutPath
10
3
20
286.5
11
3
21
277.5
0
LINE
8
back_outsideCutPath
10
3
20
277.5
11
0
21
277.5
0
LINE
8
back_outsideCutPath
10
0
20
277.5
11
0
21
268.5
0
LINE
8
back_outsideCutPath
10
0
20
268.5
11
3
21
268.5
0
LINE
8
back_outsideCutPath
10
3
20
268.5
11
3
21
259.5
0
LINE
8
back_outsideCutPath
10
3
20
259.5
11
0
21
259.5
0
LINE
8
back_outsideCutPath
10
0
20
259.5
11
0
21
250.5
0
LINE
8
back_outsideCutPath
10
0
20
250.5
11
3
21
250.5
0
LINE
8
back_outsideCutPath
10
3
20
250.5
11
3
21
241.5
0
LINE
8
back_outsideCutPath
10
3
20
241.5
11
0
21
241.5
0
LINE
8
back_outsideCutPath
10
0
20
241.5
11
0
21
232.5
0
LINE
8
back_outsideCutPath
10
0
20
232.5
11
3
21
232.5
0
LINE
8
back_outsideCutPath
10
3
20
232.5
11
3
21
223.5
0
LINE
8
back_outsideCutPath
10
3
20
223.5
11
0
21
223.5
0
LINE
8
back_outsideCutPath
10
0
20
223.5
11
0
21
214.5
0
LINE
8
back_outsideCutPath
10
0
20
214.5
11
3
21
214.5
0
LINE
8
back_outsideCutPath
10
3
20
214.5
11
3
21
205.5
0
LINE
8
back_outsideCutPath
10
3
20
205.5
11
0
21
205.5
0
LINE
8
back_outsideCutPath
10
0
20
205.5
11
0
21
196.5
0
LINE
8
back_outsideCutPath
10
0
20
196.5
11
3
21
196.5
0
LINE
8
back_outsideCutPath
10
3
20
196.5
11
3
21
187.5
0
LINE
8
back_outsideCutPath
10
3
20
187.5
11
0
21
187.5
0
LINE
8
back_outsideCutPath
10
11.5
20
179
11
20.5
21
179
0
LINE
8
back_outsideCutPath
10
29.5
20
179
11
38.5
21
179
0
LINE
8
back_outsideCutPath
10
47.5
20
179
11
56.5
21
179
0
LINE
8
back_outsideCutPath
10
65.5
20
179
11
74.5
21
179
0
LINE
8
back_outsideCutPath
10
83.5
20
179
11
92.5
21
179
0
LINE
8
back_outsideCutPath
10
101.5
20
179
11
110.5
21
179
0
LINE
8
back_outsideCutPath
10
119.5
20
179
11
128.5
21
179
0
LINE
8
back_outsideCutPath
10
137.5
20
179
11
146.5
21
179
0
LINE
8
back_outsideCutPath
10
155.5
20
179
11
164.5
21
179
0
LINE
8
back_outsideCutPath
10
173
20
187.5
11
179
21
187.5
0
LINE
8
back_outsideCutPath
10
173
20
187.5
11
173
21
196.5
0
LINE
8
back_outsideCutPath
10
173
20
196.5
11
179
21
196.5
0
LINE
8
back_outsideCutPath
10
176
20
196.5
11
176
21
214.5
0
LINE
8
back_outsideCutPath
10
173
20
205.5
11
179
21
205.5
0
LINE
8
back_outsideCutPath
10
173
20
205.5
11
173
21
214.5
0
LINE
8
back_outsideCutPath
10
173
20
214.5
11
179
21
214.5
0
LINE
8
back_outsideCutPath
10
176
20
214.5
11
176
21
232.5
0
LINE
8
back_outsideCutPath
10
173
20
223.5
11
179
21
223.5
0
LINE
8
back_outsideCutPath
10
173
20
223.5
11
173
21
232.5
0
LINE
8
back_outsideCutPath
10
173
20
232.5
11
179
21
232.5
0
LINE
8
back_outsideCutPath
10
176
20
232.5
11
176
21
250.5
0
LINE
8
back_outsideCutPath
10
173
20
241.5
11
179
21
241.5
0
LINE
8
back_outsideCutPath
10
173
20
241.5
11
173
21
250.5
0
LINE
8
back_outsideCutPath
10
173
20
250.5
11
179
21
250.5
0
LINE
8
back_outsideCutPath
10
176
20
250.5
11
176
21
268.5
0
LINE
8
back_outsideCutPath
10
173
20
259.5
11
179
21
259.5
0
LINE
8
back_outsideCutPath
10
173
20
259.5
11
173
21
268.5
0
LINE
8
back_outsideCutPath
10
173
20
268.5
11
179
21
268.5
0
LINE
8
back_outsideCutPath
10
176
20
268.5
11
176
21
286.5
0
LINE
8
back_outsideCutPath
10
173
20
277.5
11
179
21
277.5
0
LINE
8
back_outsideCutPath
10
173
20
277.5
11
173
21
286.5
0
LINE
8
back_outsideCutPath
10
173
20
286.5
11
179
21
286.5
0
LINE
8
back_outsideCutPath
10
176
20
286.5
11
176
21
304.5
0
LINE
8
back_outsideCutPath
10
173
20
295.5
11
179
21
295.5
0
LINE
8
back_outsideCutPath
10
173
20
295.5
11
173
21
304.5
0
LINE
8
back_outsideCutPath
10
173
20
304.5
11
179
21
304.5
0
LINE
8
back_outsideCutPath
10
176
20
304.5
11
176
21
322.5
0
LINE
8
back_outsideCutPath
10
173
20
313.5
11
179
21
313.5
0
LINE
8
back_outsideCutPath
10
173
20
313.5
11
173
21
322.5
0
LINE
8
back_outsideCutPath
10
173
20
322.5
11
179
21
322.5
0
LINE
8
back_outsideCutPath
10
176
20
322.5
11
176
21
340.5
0
LINE
8
back_outsideCutPath
10
173
20
331.5
11
179
21
331.5
0
LINE
8
back_outsideCutPath
10
173
20
331.5
11
173
21
340.5
0
LINE
8
back_outsideCutPath
10
173
20
340.5
11
179
21
340.5
0
LINE
8
back_outsideCutPath
10
176
20
340.5
11
176
21
352
0
LINE
8
back_outsideCutPath
10
176
20
352
11
164.5
21
352
0
LINE
8
back_outsideCutPath
10
164.5
20
352
11
164.5
21
349
0
LINE
8
back_outsideCutPath
10
164.5
20
349
11
155.5
21
349
0
LINE
8
back_outsideCutPath
10
155.5
20
349
11
155.5
21
352
0
LINE
8
back_outsideCutPath
10
155.5
20
352
11
146.5
21
352
0
LINE
8
back_outsideCutPath
10
146.5
20
352
11
146.5
21
349
0
LINE
8
back_outsideCutPath
10
146.5
20
349
11
137.5
21
349
0
LINE
8
back_outsideCutPath
10
137.5
20
349
11
137.5
21
352
0
LINE
8
back_outsideCutPath
10
137.5
20
352
11
128.5
21
352
0
LINE
8
back_outsideCutPath
10
128.5
20
352
11
128.5
21
349
0
LINE
8
back_outsideCutPath
10
128.5
20
349
11
119.5
21
349
0
LINE
8
back_outsideCutPath
10
119.5
20
349
11
119.5
21
352
0
LINE
8
back_outsideCutPath
10
119.5
20
352
11
110.5
21
352
0
LINE
8
back_outsideCutPath
10
110.5
20
352
11
110.5
21
349
0
LINE
8
back_outsideCutPath
10
110.5
20
349
11
101.5
21
349
0
LINE
8
back_outsideCutPath
10
101.5
20
349
11
101.5
21
352
0
LINE
8
back_outsideCutPath
10
101.5
20
352
11
92.5
21
352
0
LINE
8
back_outsideCutPath
10
92.5
20
352
11
92.5
21
349
0
LINE
8
back_outsideCutPath
10
92.5
20
349
11
83.5
21
349
0
LINE
8
back_outsideCutPath
10
83.5
20
349
11
83.5
21
352
0
LINE
8
back_outsideCutPath
10
83.5
20
352
11
74.5
21
352
0
LINE
8
back_outsideCutPath
10
74.5
20
352
11
74.5
21
349
0
LINE
8
back_outsideCutPath
10
74.5
20
349
11
65.5
21
349
0
LINE
8
back_outsideCutPath
10
65.5
20
349
11
65.5
21
352
0
LINE
8
back_outsideCutPath
10
65.5
20
352
11
56.5
21
352
0
LINE
8
back_outsideCutPath
10
56.5
20
352
11
56.5
21
349
0
LINE
8
back_outsideCutPath
10
56.5
20
349
11
47.5
21
349
0
LINE
8
back_outsideCutPath
10
47.5
20
349
11
47.5
21
352
0
LINE
8
back_outsideCutPath
10
47.5
20
352
11
38.5
21
352
0
LINE
8
back_outsideCutPath
10
38.5
20
352
11
38.5
21
349
0
LINE
8
back_outsideCutPath
10
38.5
20
349
11
29.5
21
349
0
LINE
8
back_outsideCutPath
10
29.5
20
349
11
29.5
21
352
0
LINE
8
back_outsideCutPath
10
29.5
20
352
11
20.5
21
352
0
LINE
8
back_outsideCutPath
10
20.5
20
352
11
20.5
21
349
0
LINE
8
back_outsideCutPath
10
20.5
20
349
11
11.5
21
349
0
LINE
8
back_outsideCutPath
10
11.5
20
349
11
11.5
21
352
0
LINE
8
back_outsideCutPath
10
11.5
20
352
11
0
21
352
0
LINE
8
back_labelLayer
10
54.3640625
20
253.2236317
11
54.1578125
21
253.2236317
0
LINE
8
back_labelLayer
10
54.1578125
20
253.2236317
11
53.55625
21
250.8001942
0
LINE
8
back_labelLayer
10
53.55625
20
250.8001942
11
51.5109375
21
250.8001942
0
LINE
8
back_labelLayer
10
51.5109375
20
250.8001942
11
51.5109375
21
277.5439442
0
LINE
8
back_labelLayer
10
51.5109375
20
277.5439442
11
54.3640625
21
277.5439442
0
LINE
8
back_labelLayer
10
54.3640625
20
277.5439442
11
54.3640625
21
271.0470692
0
LINE
8
back_labelLayer
10
54.2265625
20
267.1283192
11
54.3640625
21
267.1283192
0
ARC
8
back_labelLayer
10
60.3621517
20
261.2273489
40
8.7201403
50
74.2393275
51
90.5623739
0
ARC
8
back_labelLayer
10
60.9387582
20
263.3426504
40
6.5277763
50
38.5631284
51
74.0670408
0
ARC
8
back_labelLayer
10
59.4548945
20
262.1888597
40
8.4073187
50
16.4709267
51
38.4075298
0
ARC
8
back_labelLayer
10
55.1801004
20
260.8484085
40
12.8869567
50
5.1338499
51
16.7973424
0
ARC
8
back_labelLayer
10
49.7835251
20
260.2751469
40
18.3133916
50
359.8779358
51
5.4093629
0
ARC
8
back_labelLayer
10
51.3686395
20
260.1374364
40
16.7285267
50
350.6562801
51
0.3380368
0
ARC
8
back_labelLayer
10
57.2004662
20
259.1455069
40
10.8130765
50
335.8305974
51
350.8254793
0
ARC
8
back_labelLayer
10
59.765798
20
258.0382728
40
8.0193837
50
321.3161416
51
335.5436231
0
ARC
8
back_labelLayer
10
60.7465326
20
257.2391221
40
6.7543372
50
274.0640033
51
321.4081021
0
ARC
8
back_labelLayer
10
60.2896409
20
260.133254
40
9.6768185
50
269.9225634
51
275.5481528
0
ARC
8
back_labelLayer
10
60.2284478
20
259.1104497
40
8.6541393
50
255.7755322
51
270.3185509
0
ARC
8
back_labelLayer
10
59.981482
20
258.0132148
40
7.529921
50
245.9801668
51
255.5455847
0
ARC
8
back_labelLayer
10
59.5031355
20
256.9008149
40
6.3191573
50
215.5850217
51
245.8361673
0
ARC
8
back_labelLayer
10
-5.1216317
20
270.9967805
40
59.4857155
50
358.1123297
51
0.0484373
0
ARC
8
back_labelLayer
10
11.4345539
20
270.4409503
40
42.9202064
50
355.7238581
51
358.1259009
0
ARC
8
back_labelLayer
10
18.7221987
20
269.9402805
40
35.6155441
50
355.4716015
51
355.652887
0
ARC
8
back_labelLayer
10
59.6850161
20
263.4178753
40
6.4869053
50
95.1835117
51
145.1109002
0
ARC
8
back_labelLayer
10
60.2551889
20
260.2026259
40
9.7444665
50
89.8743267
51
96.8145385
0
ARC
8
back_labelLayer
10
59.8043298
20
259.5407166
40
8.0175126
50
89.5731268
51
100.7324294
0
ARC
8
back_labelLayer
10
59.2108104
20
262.5393776
40
4.9608402
50
100.4469397
51
119.6700721
0
ARC
8
back_labelLayer
10
58.6604385
20
263.5683631
40
3.7944557
50
120.1402885
51
142.4248939
0
ARC
8
back_labelLayer
10
59.5709804
20
262.9660099
40
4.8840458
50
143.3382245
51
161.255997
0
ARC
8
back_labelLayer
10
63.3787105
20
261.6141371
40
8.9244191
50
160.8926337
51
171.2334305
0
ARC
8
back_labelLayer
10
69.7352728
20
260.5886739
40
15.3630756
50
171.0667816
51
177.8456908
0
ARC
8
back_labelLayer
10
76.3458211
20
260.252455
40
21.9817646
50
177.6176603
51
180.042547
0
ARC
8
back_labelLayer
10
73.2285708
20
260.1624704
40
18.8646521
50
179.7762751
51
185.7075259
0
ARC
8
back_labelLayer
10
65.7908818
20
259.3961232
40
11.3876448
50
185.5924755
51
194.2050726
0
ARC
8
back_labelLayer
10
61.0264117
20
258.1595763
40
6.4654822
50
193.9430357
51
208.0218389
0
ARC
8
back_labelLayer
10
59.0986967
20
257.1788957
40
4.3032096
50
208.5536612
51
217.560522
0
ARC
8
back_labelLayer
10
58.9416311
20
257.113566
40
4.1391107
50
218.169045
51
253.8047172
0
ARC
8
back_labelLayer
10
59.7093554
20
259.4805387
40
6.6267298
50
253.1382449
51
266.8483172
0
ARC
8
back_labelLayer
10
59.9246354
20
262.0193561
40
9.1738529
50
266.377576
51
270.0510708
0
ARC
8
back_labelLayer
10
59.9936734
20
258.532859
40
5.687678
50
269.3868959
51
285.8630671
0
ARC
8
back_labelLayer
10
60.4162315
20
257.0056745
40
4.1031652
50
286.0162963
51
326.8497293
0
ARC
8
back_labelLayer
10
58.376744
20
258.3567599
40
6.5495467
50
326.7105041
51
343.6661742
0
ARC
8
back_labelLayer
10
54.558946
20
259.5233535
40
10.5414408
50
343.4171429
51
353.6369199
0
ARC
8
back_labelLayer
10
48.7925103
20
260.2075802
40
16.3482358
50
353.4934868
51
0.2205394
0
ARC
8
back_labelLayer
10
48.28425
20
260.3387359
40
16.8565131
50
359.7680861
51
6.3095285
0
ARC
8
back_labelLayer
10
54.6337612
20
261.067382
40
10.4654184
50
6.1648652
51
16.0396471
0
ARC
8
back_labelLayer
10
58.7240001
20
262.272775
40
6.2014213
50
15.7779488
51
32.0151189
0
ARC
8
back_labelLayer
10
59.9994149
20
263.0031503
40
4.7331247
50
32.7034528
51
35.52423
0
ARC
8
back_labelLayer
10
60.465986
20
263.334768
40
4.1607112
50
35.5408404
51
79.8011188
0
ARC
8
back_labelLayer
10
59.9072466
20
260.9594575
40
6.5986904
50
78.6781282
51
90.3749655
0
LINE
8
back_labelLayer
10
86.7796875
20
250.8001942
11
84.665625
21
250.8001942
0
LINE
8
back_labelLayer
10
84.665625
20
250.8001942
11
84.0984375
21
253.4814442
0
LINE
8
back_labelLayer
10
84.0984375
20
253.4814442
11
83.9609375
21
253.4814442
0
LINE
8
back_labelLayer
10
80.7984375
20
261.9892567
11
83.9953125
21
262.0923817
0
LINE
8
back_labelLayer
10
83.9953125
20
262.0923817
11
83.9953125
21
263.2611317
0
LINE
8
back_labelLayer
10
74.6625
20
266.1486317
11
73.7859375
21
268.3314442
0
LINE
8
back_labelLayer
10
86.7796875
20
263.6564442
11
86.7796875
21
250.8001942
0
LINE
8
back_labelLayer
10
83.9265625
20
258.3626942
11
83.9265625
21
260.0642567
0
LINE
8
back_labelLayer
10
83.9265625
20
260.0642567
11
81.0734375
21
259.9439442
0
ARC
8
back_labelLayer
10
74.6779533
20
260.8108164
40
11.827658
50
314.7445221
51
321.7071735
0
ARC
8
back_labelLayer
10
77.5838379
20
257.8582185
40
7.6849929
50
304.8485712
51
314.8530713
0
ARC
8
back_labelLayer
10
78.9797734
20
255.8712473
40
5.256714
50
294.3932495
51
304.7371627
0
ARC
8
back_labelLayer
10
78.5028607
20
257.1069551
40
6.5795157
50
281.297954
51
293.7313773
0
ARC
8
back_labelLayer
10
77.8724177
20
260.162406
40
9.6992875
50
272.9335127
51
281.413908
0
ARC
8
back_labelLayer
10
77.6634564
20
263.29621
40
12.8397699
50
269.9538976
51
273.1490835
0
ARC
8
back_labelLayer
10
77.5912723
20
259.212077
40
8.7558513
50
258.6719719
51
270.4047498
0
ARC
8
back_labelLayer
10
76.983078
20
256.3027248
40
5.7837654
50
238.3273046
51
258.9183819
0
ARC
8
back_labelLayer
10
76.5639615
20
255.5380939
40
4.9131578
50
227.7689274
51
237.8049938
0
ARC
8
back_labelLayer
10
76.4328631
20
255.3550851
40
4.6896085
50
192.0827616
51
227.4520776
0
ARC
8
back_labelLayer
10
78.8506277
20
255.9510884
40
7.1789784
50
179.545728
51
192.6949405
0
ARC
8
back_labelLayer
10
76.604545
20
256.2110222
40
4.936846
50
115.4904657
51
182.3568111
0
ARC
8
back_labelLayer
10
79.0769685
20
251.6760908
40
10.0982528
50
101.3568126
51
117.0798701
0
ARC
8
back_labelLayer
10
81.0625584
20
242.3972498
40
19.5867769
50
92.4696267
51
101.7064885
0
ARC
8
back_labelLayer
10
81.633206
20
234.132532
40
27.8692293
50
91.7164401
51
92.9095744
0
ARC
8
back_labelLayer
10
75.8005719
20
263.3049936
40
8.1948579
50
359.6933301
51
8.0035759
0
ARC
8
back_labelLayer
10
78.900531
20
263.7565934
40
5.0622398
50
7.8272552
51
20.6041773
0
ARC
8
back_labelLayer
10
80.6547362
20
264.4276659
40
3.1841057
50
20.409399
51
41.4479427
0
ARC
8
back_labelLayer
10
80.9139225
20
264.5701323
40
2.8962509
50
42.7295509
51
71.0380304
0
ARC
8
back_labelLayer
10
80.303714
20
262.9109648
40
4.6638188
50
70.571625
51
83.9928743
0
ARC
8
back_labelLayer
10
80.0121958
20
260.5429762
40
7.0494383
50
83.6506768
51
90.1753213
0
ARC
8
back_labelLayer
10
80.0633315
20
258.3035183
40
9.2891479
50
90.4484607
51
103.7665568
0
ARC
8
back_labelLayer
10
81.1556845
20
253.6970083
40
14.0233161
50
103.6226483
51
112.4320004
0
ARC
8
back_labelLayer
10
83.0280689
20
248.9693684
40
19.1078473
50
112.2122133
51
115.9641079
0
ARC
8
back_labelLayer
10
80.0295699
20
256.7527022
40
13.154855
50
106.3568577
51
118.3349828
0
ARC
8
back_labelLayer
10
80.5898728
20
255.0219249
40
14.9734575
50
104.5162041
51
106.5489691
0
ARC
8
back_labelLayer
10
80.1789752
20
256.7339307
40
13.2131487
50
90.0714411
51
104.6521045
0
ARC
8
back_labelLayer
10
80.2308299
20
257.8972037
40
12.0500592
50
81.56799
51
90.3248979
0
ARC
8
back_labelLayer
10
80.9275491
20
262.4361433
40
7.4580564
50
68.2273417
51
81.7494291
0
ARC
8
back_labelLayer
10
81.8979541
20
264.850597
40
4.8558987
50
47.8683322
51
68.2934009
0
ARC
8
back_labelLayer
10
82.0554559
20
265.1650788
40
4.5180008
50
19.2331039
51
46.6741186
0
ARC
8
back_labelLayer
10
79.4317619
20
264.1890607
40
7.3169928
50
6.3379176
51
19.6815292
0
ARC
8
back_labelLayer
10
75.5533197
20
263.6951069
40
11.2264345
50
359.8026785
51
6.6583546
0
ARC
8
back_labelLayer
10
78.278005
20
260.6663946
40
7.8554748
50
269.5792023
51
282.0413698
0
ARC
8
back_labelLayer
10
78.8510082
20
258.1248022
40
5.2503525
50
281.7120885
51
306.4594005
0
ARC
8
back_labelLayer
10
79.1051034
20
257.7069395
40
4.7634806
50
306.9880795
51
313.8559358
0
ARC
8
back_labelLayer
10
79.0748593
20
257.6983029
40
4.7782881
50
314.189192
51
347.4269863
0
ARC
8
back_labelLayer
10
76.6812966
20
258.2981192
40
7.2453079
50
346.91776
51
0.282471
0
ARC
8
back_labelLayer
10
74.8872147
20
258.362614
40
9.0393477
50
359.8176085
51
0.000508
0
ARC
8
back_labelLayer
10
81.7521152
20
239.0055676
40
20.9493727
50
91.8564839
51
96.4478372
0
ARC
8
back_labelLayer
10
80.8073551
20
247.180836
40
12.7197387
50
96.354537
51
102.9953274
0
ARC
8
back_labelLayer
10
79.5249262
20
252.6294905
40
7.1222927
50
102.7995524
51
113.2432953
0
ARC
8
back_labelLayer
10
78.4677252
20
255.1579166
40
4.3819498
50
113.5886576
51
121.6804634
0
ARC
8
back_labelLayer
10
77.7332009
20
256.2765851
40
3.0444469
50
120.9734061
51
172.4179805
0
ARC
8
back_labelLayer
10
79.1688765
20
255.9898185
40
4.5064057
50
171.2122108
51
180.2058043
0
ARC
8
back_labelLayer
10
78.7398041
20
255.939942
40
4.0774433
50
179.5265914
51
192.7787277
0
ARC
8
back_labelLayer
10
77.3604797
20
255.6055884
40
2.6584109
50
192.3264545
51
222.0579661
0
ARC
8
back_labelLayer
10
77.2578714
20
255.5442248
40
2.5412269
50
222.5804891
51
229.2547028
0
ARC
8
back_labelLayer
10
77.6045745
20
255.9905929
40
3.1058283
50
229.7836954
51
254.2724362
0
ARC
8
back_labelLayer
10
78.0663286
20
257.5293434
40
4.7122145
50
253.9396721
51
266.4533698
0
ARC
8
back_labelLayer
10
78.2137055
20
259.2281777
40
6.4170494
50
266.0783332
51
270.0589917
0
LINE
8
back_labelLayer
10
105.221875
20
269.0017567
11
104.3453125
21
266.5783192
0
LINE
8
back_labelLayer
10
104.946875
20
253.9626942
11
104.946875
21
251.4361317
0
ARC
8
back_labelLayer
10
100.0949352
20
261.1193354
40
10.6632795
50
256.4243797
51
270.4889783
0
ARC
8
back_labelLayer
10
99.2428382
20
257.7936696
40
7.2306753
50
221.7976276
51
256.8020521
0
ARC
8
back_labelLayer
10
100.0679941
20
258.4033462
40
8.2527345
50
196.0166598
51
221.1349263
0
ARC
8
back_labelLayer
10
104.2151558
20
259.6709342
40
12.5888766
50
183.5913707
51
196.3539602
0
ARC
8
back_labelLayer
10
108.8609122
20
260.0802175
40
17.2515469
50
179.9388429
51
183.9815095
0
ARC
8
back_labelLayer
10
107.3514788
20
260.1999864
40
15.7424301
50
169.8978445
51
180.3688907
0
ARC
8
back_labelLayer
10
101.8711767
20
261.2137612
40
10.169338
50
153.0875195
51
170.1051387
0
ARC
8
back_labelLayer
10
99.7918378
20
262.2073242
40
7.8656719
50
138.6550108
51
152.6853519
0
ARC
8
back_labelLayer
10
99.4037461
20
262.4901389
40
7.3876201
50
101.4912936
51
138.3133869
0
ARC
8
back_labelLayer
10
100.2946996
20
258.782086
40
11.1996462
50
89.5891911
51
102.178777
0
ARC
8
back_labelLayer
10
100.3632118
20
257.1061158
40
12.8753338
50
77.7702411
51
89.947542
0
ARC
8
back_labelLayer
10
100.1195169
20
255.7616647
40
14.2409726
50
74.6797098
51
77.9578638
0
ARC
8
back_labelLayer
10
101.4358898
20
260.5306647
40
9.293644
50
70.0945684
51
74.7386147
0
ARC
8
back_labelLayer
10
102.6880392
20
263.9621805
40
5.6408307
50
63.5033863
51
70.1861586
0
ARC
8
back_labelLayer
10
103.2726177
20
265.1877968
40
4.2832107
50
62.929111
51
63.1873213
0
ARC
8
back_labelLayer
10
99.6583609
20
254.7828908
40
12.6925035
50
68.3294413
51
74.8831286
0
ARC
8
back_labelLayer
10
98.9887829
20
252.4086767
40
15.1592029
50
74.7801742
51
77.4497541
0
ARC
8
back_labelLayer
10
99.6917827
20
255.7084553
40
11.7855513
50
77.2998951
51
81.7345345
0
ARC
8
back_labelLayer
10
100.2045411
20
259.281401
40
8.1760075
50
81.6909908
51
87.507891
0
ARC
8
back_labelLayer
10
100.3034676
20
261.1303874
40
6.3244951
50
87.674906
51
89.9747931
0
ARC
8
back_labelLayer
10
100.1648127
20
261.1278117
40
6.3286506
50
88.7194052
51
112.566768
0
ARC
8
back_labelLayer
10
99.7151185
20
262.6146152
40
4.7856339
50
114.426572
51
161.6632826
0
ARC
8
back_labelLayer
10
104.1823798
20
260.8660813
40
9.5795331
50
160.1418427
51
175.1368091
0
ARC
8
back_labelLayer
10
110.3309699
20
260.1756401
40
15.7654028
50
174.5309728
51
180.1549418
0
ARC
8
back_labelLayer
10
108.3830445
20
260.0616558
40
13.8176037
50
179.7041369
51
188.0743588
0
ARC
8
back_labelLayer
10
103.4061012
20
259.3334771
40
8.7877474
50
187.9315213
51
200.3885347
0
ARC
8
back_labelLayer
10
100.7150341
20
258.3365754
40
5.9179666
50
200.4183388
51
216.6392628
0
ARC
8
back_labelLayer
10
99.5868727
20
257.5300822
40
4.5315003
50
216.9695393
51
261.3103045
0
ARC
8
back_labelLayer
10
100.0847538
20
259.8512803
40
6.902725
50
260.1359372
51
270.2692157
0
ARC
8
back_labelLayer
10
100.0617708
20
264.8920322
40
11.9435291
50
270.2658472
51
286.2891416
0
ARC
8
back_labelLayer
10
99.3357005
20
267.5997925
40
14.7463802
50
286.0460659
51
292.3654001
0
ARC
8
back_labelLayer
10
101.2693413
20
258.6707162
40
8.1156311
50
282.0344259
51
296.945454
0
ARC
8
back_labelLayer
10
100.4346992
20
262.4321327
40
11.9684462
50
272.5980469
51
282.1878369
0
ARC
8
back_labelLayer
10
100.1953602
20
266.1028205
40
15.6463791
50
269.9654947
51
272.8642862
0
LINE
8
back_labelLayer
10
112.096875
20
260.4423817
11
112.234375
21
260.4423817
0
LINE
8
back_labelLayer
10
114.4859375
20
263.1923817
11
120.5703125
21
269.6376942
0
LINE
8
back_labelLayer
10
120.5703125
20
269.6376942
11
123.95625
21
269.6376942
0
LINE
8
back_labelLayer
10
123.95625
20
269.6376942
11
116.325
21
261.6111317
0
LINE
8
back_labelLayer
10
116.325
20
261.6111317
11
124.4890625
21
250.8001942
0
LINE
8
back_labelLayer
10
124.4890625
20
250.8001942
11
121.034375
21
250.8001942
0
LINE
8
back_labelLayer
10
121.034375
20
250.8001942
11
114.3828125
21
259.7033192
0
LINE
8
back_labelLayer
10
114.3828125
20
259.7033192
11
112.234375
21
257.8470692
0
LINE
8
back_labelLayer
10
112.234375
20
257.8470692
11
112.234375
21
250.8001942
0
LINE
8
back_labelLayer
10
112.234375
20
250.8001942
11
109.415625
21
250.8001942
0
LINE
8
back_labelLayer
10
109.415625
20
250.8001942
11
109.415625
21
277.5439442
0
LINE
8
back_labelLayer
10
109.415625
20
277.5439442
11
112.234375
21
277.5439442
0
LINE
8
back_labelLayer
10
112.234375
20
277.5439442
11
112.234375
21
263.3642567
0
ARC
8
back_labelLayer
10
126.020264
20
250.6841468
40
16.8900528
50
142.3233632
51
144.7075268
0
ARC
8
back_labelLayer
10
135.0146048
20
243.7466228
40
28.2490749
50
140.4331199
51
142.3365844
0
ARC
8
back_labelLayer
10
146.736897
20
234.0970921
40
43.4321265
50
139.2799182
51
140.4703246
0
ARC
8
back_labelLayer
10
160.2885314
20
222.4436064
40
61.3053039
50
138.3417618
51
139.2877277
0
ARC
8
back_labelLayer
10
93.2222039
20
263.3998297
40
19.0122044
50
358.2738851
51
359.8927959
0
ARC
8
back_labelLayer
10
78.4301518
20
263.8120434
40
33.8099777
50
357.5041519
51
358.3307184
0
ARC
8
back_labelLayer
10
56.29444
20
264.7897245
40
55.9672676
50
356.6324907
51
357.4910378
0
ARC
8
back_labelLayer
10
19.4942392
20
266.9359906
40
92.8299997
50
356.0329187
51
356.644276
0
ARC
8
back_labelLayer
10
-5.6319639
20
268.6322673
40
118.0133626
50
356.0205917
51
356.0553013
0
LINE
8
right_outsideCutPath
10
179
20
352
11
179
21
340.5
0
LINE
8
right_outsideCutPath
10
179
20
331.5
11
179
21
322.5
0
LINE
8
right_outsideCutPath
10
179
20
313.5
11
179
21
304.5
0
LINE
8
right_outsideCutPath
10
179
20
295.5
11
179
21
286.5
0
LINE
8
right_outsideCutPath
10
179
20
277.5
11
179
21
268.5
0
LINE
8
right_outsideCutPath
10
179
20
259.5
11
179
21
250.5
0
LINE
8
right_outsideCutPath
10
179
20
241.5
11
179
21
232.5
0
LINE
8
right_outsideCutPath
10
179
20
223.5
11
179
21
214.5
0
LINE
8
right_outsideCutPath
10
179
20
205.5
11
179
21
196.5
0
LINE
8
right_outsideCutPath
10
184
20
179
11
193
21
179
0
LINE
8
right_outsideCutPath
10
202
20
179
11
211
21
179
0
LINE
8
right_outsideCutPath
10
220
20
179
11
229
21
179
0
LINE
8
right_outsideCutPath
10
238
20
179
11
247
21
179
0
LINE
8
right_outsideCutPath
10
252
20
187.5
11
255
21
187.5
0
LINE
8
right_outsideCutPath
10
255
20
187.5
11
255
21
196.5
0
LINE
8
right_outsideCutPath
10
255
20
196.5
11
252
21
196.5
0
LINE
8
right_outsideCutPath
10
252
20
196.5
11
252
21
205.5
0
LINE
8
right_outsideCutPath
10
252
20
205.5
11
255
21
205.5
0
LINE
8
right_outsideCutPath
10
255
20
205.5
11
255
21
214.5
0
LINE
8
right_outsideCutPath
10
255
20
214.5
11
252
21
214.5
0
LINE
8
right_outsideCutPath
10
252
20
214.5
11
252
21
223.5
0
LINE
8
right_outsideCutPath
10
252
20
223.5
11
255
21
223.5
0
LINE
8
right_outsideCutPath
10
255
20
223.5
11
255
21
232.5
0
LINE
8
right_outsideCutPath
10
255
20
232.5
11
252
21
232.5
0
LINE
8
right_outsideCutPath
10
252
20
232.5
11
252
21
241.5
0
LINE
8
right_outsideCutPath
10
252
20
241.5
11
255
21
241.5
0
LINE
8
right_outsideCutPath
10
255
20
241.5
11
255
21
250.5
0
LINE
8
right_outsideCutPath
10
255
20
250.5
11
252
21
250.5
0
LINE
8
right_outsideCutPath
10
252
20
250.5
11
252
21
259.5
0
LINE
8
right_outsideCutPath
10
252
20
259.5
11
255
21
259.5
0
LINE
8
right_outsideCutPath
10
255
20
259.5
11
255
21
268.5
0
LINE
8
right_outsideCutPath
10
255
20
268.5
11
252
21
268.5
0
LINE
8
right_outsideCutPath
10
252
20
268.5
11
252
21
277.5
0
LINE
8
right_outsideCutPath
10
252
20
277.5
11
255
21
277.5
0
LINE
8
right_outsideCutPath
10
255
20
277.5
11
255
21
286.5
0
LINE
8
right_outsideCutPath
10
255
20
286.5
11
252
21
286.5
0
LINE
8
right_outsideCutPath
10
252
20
286.5
11
252
21
295.5
0
LINE
8
right_outsideCutPath
10
252
20
295.5
11
255
21
295.5
0
LINE
8
right_outsideCutPath
10
255
20
295.5
11
255
21
304.5
0
LINE
8
right_outsideCutPath
10
255
20
304.5
11
252
21
304.5
0
LINE
8
right_outsideCutPath
10
252
20
304.5
11
252
21
313.5
0
LINE
8
right_outsideCutPath
10
252
20
313.5
11
255
21
313.5
0
LINE
8
right_outsideCutPath
10
255
20
313.5
11
255
21
322.5
0
LINE
8
right_outsideCutPath
10
255
20
322.5
11
252
21
322.5
0
LINE
8
right_outsideCutPath
10
252
20
322.5
11
252
21
331.5
0
LINE
8
right_outsideCutPath
10
252
20
331.5
11
255
21
331.5
0
LINE
8
right_outsideCutPath
10
255
20
331.5
11
255
21
340.5
0
LINE
8
right_outsideCutPath
10
255
20
340.5
11
252
21
340.5
0
LINE
8
right_outsideCutPath
10
252
20
340.5
11
252
21
352
0
LINE
8
right_outsideCutPath
10
252
20
352
11
247
21
352
0
LINE
8
right_outsideCutPath
10
247
20
352
11
247
21
349
0
LINE
8
right_outsideCutPath
10
247
20
349
11
238
21
349
0
LINE
8
right_outsideCutPath
10
238
20
349
11
238
21
352
0
LINE
8
right_outsideCutPath
10
238
20
352
11
229
21
352
0
LINE
8
right_outsideCutPath
10
229
20
352
11
229
21
349
0
LINE
8
right_outsideCutPath
10
229
20
349
11
220
21
349
0
LINE
8
right_outsideCutPath
10
220
20
349
11
220
21
352
0
LINE
8
right_outsideCutPath
10
220
20
352
11
211
21
352
0
LINE
8
right_outsideCutPath
10
211
20
352
11
211
21
349
0
LINE
8
right_outsideCutPath
10
211
20
349
11
202
21
349
0
LINE
8
right_outsideCutPath
10
202
20
349
11
202
21
352
0
LINE
8
right_outsideCutPath
10
202
20
352
11
193
21
352
0
LINE
8
right_outsideCutPath
10
193
20
352
11
193
21
349
0
LINE
8
right_outsideCutPath
10
193
20
349
11
184
21
349
0
LINE
8
right_outsideCutPath
10
184
20
349
11
184
21
352
0
LINE
8
right_outsideCutPath
10
184
20
352
11
179
21
352
0
LINE
8
right_labelLayer
10
204.0241699
20
268.4129372
11
203.8467285
21
267.2248513
0
LINE
8
right_labelLayer
10
200.4367676
20
264.4320779
11
200.4367676
21
259.8957497
0
LINE
8
right_labelLayer
10
200.4367676
20
259.8957497
11
199.1561035
21
259.8957497
0
LINE
8
right_labelLayer
10
199.1561035
20
259.8957497
11
199.1561035
21
268.3512185
0
LINE
8
right_labelLayer
10
199.1561035
20
268.3512185
11
200.2130371
21
268.3512185
0
LINE
8
right_labelLayer
10
200.2130371
20
268.3512185
11
200.3596191
21
266.7851052
0
LINE
8
right_labelLayer
10
200.3596191
20
266.7851052
11
200.4213379
21
266.7851052
0
ARC
8
right_labelLayer
10
203.0266684
20
262.6261778
40
5.8793522
50
84.9922925
51
90.1280821
0
ARC
8
right_labelLayer
10
203.1678664
20
264.2081352
40
4.291109
50
78.4891809
51
85.0266126
0
ARC
8
right_labelLayer
10
202.619844
20
261.7155865
40
5.6442222
50
77.445394
51
81.6360538
0
ARC
8
right_labelLayer
10
202.8657501
20
263.410611
40
3.9314577
50
81.5884208
51
87.1916296
0
ARC
8
right_labelLayer
10
202.9191639
20
264.3369098
40
3.0036648
50
87.3435639
51
89.9659824
0
ARC
8
right_labelLayer
10
202.9067549
20
265.1216071
40
2.2190122
50
89.6335445
51
137.0880748
0
ARC
8
right_labelLayer
10
203.4511722
20
264.5093588
40
3.0356031
50
135.6207504
51
138.8378085
0
ARC
8
right_labelLayer
10
203.3715416
20
264.5870975
40
2.9244924
50
138.9575776
51
174.5422323
0
ARC
8
right_labelLayer
10
204.3239482
20
264.4380687
40
3.8871853
50
173.690722
51
180.0883025
0
ARC
8
right_labelLayer
10
204.1893245
20
264.6622392
40
4.3248449
50
139.4139371
51
150.6032931
0
ARC
8
right_labelLayer
10
203.4138804
20
265.3267114
40
3.303651
50
124.2321554
51
139.4160891
0
ARC
8
right_labelLayer
10
202.9992517
20
265.9525916
40
2.5529637
50
89.6796554
51
124.4405781
0
LINE
8
right_labelLayer
10
206.8863769
20
268.3512185
11
206.8863769
21
259.8957497
0
LINE
8
right_labelLayer
10
206.8863769
20
259.8957497
11
205.6057129
21
259.8957497
0
LINE
8
right_labelLayer
10
205.6057129
20
259.8957497
11
205.6057129
21
268.3512185
0
LINE
8
right_labelLayer
10
205.6057129
20
268.3512185
11
206.8863769
21
268.3512185
0
ARC
8
right_labelLayer
10
206.9168097
20
270.6513069
40
1.4191318
50
170.8452047
51
180.3544782
0
ARC
8
right_labelLayer
10
206.3855462
20
270.7401355
40
0.8805084
50
155.9679142
51
171.0515983
0
ARC
8
right_labelLayer
10
206.1282243
20
270.8542947
40
0.5990008
50
133.787985
51
155.9171922
0
ARC
8
right_labelLayer
10
206.2232277
20
270.7492643
40
0.7405756
50
92.6446378
51
133.4710357
0
ARC
8
right_labelLayer
10
206.253235
20
270.5135806
40
0.9775794
50
89.9692446
51
93.7641946
0
ARC
8
right_labelLayer
10
206.2654527
20
270.7366995
40
0.754551
50
46.3708256
51
90.8879204
0
ARC
8
right_labelLayer
10
206.3405483
20
270.8142261
40
0.6466212
50
17.7251817
51
46.4473193
0
ARC
8
right_labelLayer
10
205.9903495
20
270.6936325
40
1.0169437
50
4.9428302
51
18.1900134
0
ARC
8
right_labelLayer
10
205.5447901
20
270.6454711
40
1.4650272
50
359.8848641
51
5.3179725
0
ARC
8
right_labelLayer
10
205.6848127
20
270.633528
40
1.3250323
50
349.8344779
51
0.3891308
0
ARC
8
right_labelLayer
10
206.167195
20
270.5435413
40
0.8343475
50
332.6321961
51
350.0705241
0
ARC
8
right_labelLayer
10
206.3549548
20
270.4508263
40
0.6249945
50
313.6152713
51
332.2677327
0
ARC
8
right_labelLayer
10
206.264467
20
270.5332179
40
0.7471152
50
269.1788408
51
314.2807461
0
ARC
8
right_labelLayer
10
206.2452715
20
270.5996343
40
0.8134991
50
250.5000015
51
270.597846
0
ARC
8
right_labelLayer
10
206.2206536
20
270.5075785
40
0.7185453
50
225.1301298
51
249.9001175
0
ARC
8
right_labelLayer
10
206.1821063
20
270.4649968
40
0.6611776
50
197.793334
51
224.8942078
0
ARC
8
right_labelLayer
10
206.5428691
20
270.5886267
40
1.0424896
50
184.9925231
51
198.2040324
0
ARC
8
right_labelLayer
10
207.0097293
20
270.6393748
40
1.5120275
50
179.8805487
51
185.3686824
0
LINE
8
right_labelLayer
10
213.598291
20
268.3512185
11
216.5222168
21
268.3512185
0
LINE
8
right_labelLayer
10
216.5222168
20
268.3512185
11
216.5222168
21
267.5411599
0
LINE
8
right_labelLayer
10
216.5222168
20
267.5411599
11
214.9561035
21
267.3560036
0
LINE
8
right_labelLayer
10
212.0707519
20
261.2381325
11
213.5674316
21
261.2381325
0
LINE
8
right_labelLayer
10
213.1585449
20
260.0886208
11
211.623291
21
260.0886208
0
ARC
8
right_labelLayer
10
213.324091
20
266.0644483
40
2.0812448
50
29.4584431
51
38.357675
0
ARC
8
right_labelLayer
10
212.4736132
20
265.5789463
40
3.0605359
50
23.1845669
51
29.5422072
0
ARC
8
right_labelLayer
10
211.6619937
20
265.2190224
40
3.9483265
50
21.2507692
51
23.3489377
0
ARC
8
right_labelLayer
10
213.041465
20
265.7676533
40
2.4638294
50
6.850512
51
20.9871622
0
ARC
8
right_labelLayer
10
212.3475437
20
265.673571
40
3.1640365
50
359.8711014
51
7.04319
0
ARC
8
right_labelLayer
10
212.5758659
20
265.6359261
40
2.9358651
50
342.5649956
51
0.5957656
0
ARC
8
right_labelLayer
10
213.1173305
20
265.4864082
40
2.3745582
50
310.6097772
51
342.0923744
0
ARC
8
right_labelLayer
10
212.8136985
20
265.8395878
40
2.8403134
50
284.9315819
51
310.6222735
0
ARC
8
right_labelLayer
10
212.4337373
20
267.1710278
40
4.2247677
50
272.533507
51
285.2579553
0
ARC
8
right_labelLayer
10
212.3360435
20
268.5056268
40
5.5625145
50
269.969234
51
272.9311465
0
ARC
8
right_labelLayer
10
212.3239235
20
267.0589656
40
4.1158627
50
263.4836931
51
270.1271395
0
ARC
8
right_labelLayer
10
212.2568883
20
266.4222048
40
3.4756126
50
259.4963593
51
263.3903668
0
ARC
8
right_labelLayer
10
212.671806
20
260.9814815
40
2.2788879
50
117.3935227
51
128.4095608
0
ARC
8
right_labelLayer
10
212.0851292
20
261.7092948
40
1.3441123
50
128.0881857
51
147.1400581
0
ARC
8
right_labelLayer
10
211.7690644
20
261.9213985
40
0.9635566
50
147.5369317
51
180.2592413
0
ARC
8
right_labelLayer
10
211.4692182
20
261.9088354
40
0.6637513
50
179.2918543
51
198.358077
0
ARC
8
right_labelLayer
10
211.3449439
20
261.8761744
40
0.5355768
50
199.229145
51
239.5691384
0
ARC
8
right_labelLayer
10
211.4484752
20
262.0193693
40
0.7116808
50
238.2212354
51
239.844818
0
ARC
8
right_labelLayer
10
211.5301911
20
262.1876607
40
0.8983538
50
240.7302913
51
254.5027166
0
ARC
8
right_labelLayer
10
211.7753809
20
263.0325758
40
1.7780946
50
254.163717
51
262.2122825
0
ARC
8
right_labelLayer
10
211.9695961
20
264.3891154
40
3.1484511
50
262.0556231
51
267.2082938
0
ARC
8
right_labelLayer
10
212.0634086
20
266.1097535
40
4.8716265
50
267.0918926
51
270.086366
0
ARC
8
right_labelLayer
10
213.5954252
20
255.9959048
40
5.2423025
50
81.5744164
51
90.3059577
0
ARC
8
right_labelLayer
10
213.8829775
20
257.8712639
40
3.3450648
50
68.3671434
51
81.7399151
0
ARC
8
right_labelLayer
10
214.2585551
20
258.8310983
40
2.3143815
50
52.1879198
51
68.2501349
0
ARC
8
right_labelLayer
10
214.5213449
20
259.1851872
40
1.8735566
50
8.6201407
51
51.8982543
0
ARC
8
right_labelLayer
10
213.6002808
20
258.9903011
40
2.8139564
50
359.7430855
51
9.7326069
0
ARC
8
right_labelLayer
10
213.6415494
20
258.9428311
40
2.7728786
50
340.5268674
51
0.7201677
0
ARC
8
right_labelLayer
10
214.0489491
20
258.8413936
40
2.35531
50
302.9903669
51
339.549449
0
ARC
8
right_labelLayer
10
213.6215874
20
259.3843957
40
3.044105
50
303.1868299
51
304.1723013
0
ARC
8
right_labelLayer
10
213.2227089
20
260.0749297
40
3.8405945
50
286.2542126
51
302.5280049
0
ARC
8
right_labelLayer
10
212.4973742
20
262.467414
40
6.3405266
50
276.493983
51
286.4953698
0
ARC
8
right_labelLayer
10
212.0448113
20
266.2505596
40
10.1506062
50
269.7545004
51
276.6169765
0
ARC
8
right_labelLayer
10
211.967518
20
263.2751721
40
7.1752051
50
262.5634669
51
270.2699052
0
ARC
8
right_labelLayer
10
211.6160907
20
260.6704109
40
4.5468826
50
251.2101998
51
262.7063969
0
ARC
8
right_labelLayer
10
211.1095639
20
259.183678
40
2.9762319
50
235.9668225
51
251.2229029
0
ARC
8
right_labelLayer
10
210.5726888
20
258.4177667
40
2.041101
50
208.9036258
51
236.4231457
0
ARC
8
right_labelLayer
10
210.6219782
20
258.3971067
40
2.0746882
50
182.2080051
51
207.7461413
0
ARC
8
right_labelLayer
10
211.2493463
20
258.459775
40
2.7042783
50
179.9785206
51
183.0226946
0
ARC
8
right_labelLayer
10
210.5029642
20
258.4951437
40
1.9581973
50
138.3916086
51
181.0052574
0
ARC
8
right_labelLayer
10
210.7097526
20
258.309303
40
2.2362188
50
113.8121439
51
138.3496315
0
ARC
8
right_labelLayer
10
211.1020084
20
257.4622549
40
3.1695751
50
102.2870922
51
114.1172466
0
ARC
8
right_labelLayer
10
210.9787521
20
261.768684
40
1.3291642
50
216.5861758
51
245.4968518
0
ARC
8
right_labelLayer
10
211.168962
20
261.9300685
40
1.5781688
50
215.4651862
51
217.174857
0
ARC
8
right_labelLayer
10
210.8520923
20
261.7011932
40
1.1872959
50
182.1767114
51
215.3415885
0
ARC
8
right_labelLayer
10
211.1343259
20
261.7314677
40
1.4706054
50
179.983836
51
182.9377491
0
ARC
8
right_labelLayer
10
211.1281848
20
261.7442618
40
1.4645164
50
161.7226263
51
180.4843143
0
ARC
8
right_labelLayer
10
210.9671625
20
261.7881979
40
1.2978683
50
144.4963536
51
161.3350261
0
ARC
8
right_labelLayer
10
211.396392
20
261.468298
40
1.8331121
50
132.7259193
51
144.1479543
0
ARC
8
right_labelLayer
10
212.0843162
20
260.7336773
40
2.8395297
50
125.2212464
51
132.8655538
0
ARC
8
right_labelLayer
10
212.7759314
20
259.7732922
40
4.0229925
50
121.2352691
51
125.3795325
0
ARC
8
right_labelLayer
10
211.5498733
20
265.2869632
40
2.2451076
50
215.1640785
51
247.4747809
0
ARC
8
right_labelLayer
10
211.9689231
20
265.6251548
40
2.7826765
50
212.4713123
51
215.8875254
0
ARC
8
right_labelLayer
10
211.8587512
20
265.5463381
40
2.6474244
50
183.0160669
51
212.3123344
0
ARC
8
right_labelLayer
10
212.4396915
20
265.6110892
40
3.2311467
50
179.9758886
51
183.6206565
0
ARC
8
right_labelLayer
10
212.9084793
20
265.6436992
40
3.7000663
50
166.8196016
51
180.4839187
0
ARC
8
right_labelLayer
10
211.6810134
20
265.9536061
40
2.4343695
50
132.3287837
51
167.3340843
0
ARC
8
right_labelLayer
10
211.8452301
20
265.7175572
40
2.7197187
50
106.2189014
51
131.5377575
0
ARC
8
right_labelLayer
10
212.2607306
20
264.3721931
40
4.1276572
50
93.6329827
51
106.5408499
0
ARC
8
right_labelLayer
10
212.3963751
20
262.849266
40
5.6562527
50
89.9380564
51
94.026741
0
ARC
8
right_labelLayer
10
212.4183377
20
263.5966905
40
4.9088504
50
82.5852275
51
90.1849709
0
ARC
8
right_labelLayer
10
212.5683248
20
264.7571862
40
3.7387029
50
74.0089272
51
82.5694348
0
ARC
8
right_labelLayer
10
211.0655369
20
258.4587254
40
1.2862125
50
179.2207249
51
200.935556
0
ARC
8
right_labelLayer
10
210.9125822
20
258.4233084
40
1.130906
50
202.0286668
51
236.1457672
0
ARC
8
right_labelLayer
10
211.14317
20
258.7161092
40
1.502789
50
235.0637027
51
238.5041034
0
ARC
8
right_labelLayer
10
211.4110997
20
259.1946812
40
2.0509467
50
239.106598
51
254.4862877
0
ARC
8
right_labelLayer
10
211.7684118
20
260.4266757
40
3.3336578
50
254.2323712
51
263.4937614
0
ARC
8
right_labelLayer
10
211.9928639
20
262.3277223
40
5.2478992
50
263.4108266
51
270.1457367
0
ARC
8
right_labelLayer
10
212.0168672
20
263.6792684
40
6.5994367
50
269.9074956
51
269.9989656
0
ARC
8
right_labelLayer
10
212.0474422
20
265.6890065
40
8.6092294
50
269.7957252
51
275.3991264
0
ARC
8
right_labelLayer
10
212.3696566
20
262.3811807
40
5.2857696
50
275.2957034
51
283.3515983
0
ARC
8
right_labelLayer
10
212.8946197
20
260.2189586
40
3.0607834
50
283.1370624
51
295.857292
0
ARC
8
right_labelLayer
10
213.2835991
20
259.3697619
40
2.1270566
50
296.4047911
51
301.8008943
0
ARC
8
right_labelLayer
10
213.4361088
20
259.1595475
40
1.8681258
50
301.2230847
51
318.6238319
0
ARC
8
right_labelLayer
10
213.780084
20
258.8418045
40
1.4000274
50
319.0765624
51
1.1406892
0
ARC
8
right_labelLayer
10
213.4471794
20
258.883401
40
1.7327089
50
359.5461323
51
10.9904691
0
ARC
8
right_labelLayer
10
214.1164693
20
259.0195332
40
1.049759
50
10.6609055
51
30.9362152
0
ARC
8
right_labelLayer
10
214.3286768
20
259.1373019
40
0.8072377
50
31.5095453
51
58.0778163
0
ARC
8
right_labelLayer
10
214.129786
20
258.7811809
40
1.2148249
50
58.9972226
51
73.858621
0
ARC
8
right_labelLayer
10
213.7277874
20
257.4651589
40
2.5908059
50
73.4099907
51
81.590739
0
ARC
8
right_labelLayer
10
213.3871691
20
255.2609101
40
4.8211914
50
81.4172247
51
86.575642
0
ARC
8
right_labelLayer
10
213.1784416
20
251.9398909
40
8.1487544
50
86.5054151
51
90.1398984
0
ARC
8
right_labelLayer
10
211.6049735
20
257.1448165
40
2.9438613
50
89.6434888
51
100.0209291
0
ARC
8
right_labelLayer
10
211.4199476
20
258.151339
40
1.9205111
50
99.8102927
51
116.8229581
0
ARC
8
right_labelLayer
10
211.2397092
20
258.5314365
40
1.5000182
50
117.2304325
51
130.5023527
0
ARC
8
right_labelLayer
10
211.14717
20
258.6503701
40
1.3494988
50
130.7944594
51
169.0413467
0
ARC
8
right_labelLayer
10
211.8286454
20
258.4898813
40
2.0492477
50
168.2580838
51
180.3820058
0
ARC
8
right_labelLayer
10
212.9735261
20
265.624188
40
2.4998199
50
179.5617591
51
191.6529226
0
ARC
8
right_labelLayer
10
212.1043723
20
265.4364035
40
1.6106728
50
191.3555297
51
213.3660228
0
ARC
8
right_labelLayer
10
211.8956437
20
265.3158824
40
1.3701362
50
213.9574029
51
227.7971237
0
ARC
8
right_labelLayer
10
212.0772402
20
265.536132
40
1.6553339
50
228.2620829
51
254.7341317
0
ARC
8
right_labelLayer
10
212.3092413
20
266.3314299
40
2.4836967
50
254.4016122
51
267.434912
0
ARC
8
right_labelLayer
10
212.3697719
20
267.1432503
40
3.297501
50
267.0155073
51
270.0323003
0
ARC
8
right_labelLayer
10
212.4093354
20
266.6354823
40
2.7899874
50
269.2256669
51
284.3773242
0
ARC
8
right_labelLayer
10
212.7896061
20
265.3106165
40
1.4127398
50
282.7796644
51
346.4828468
0
ARC
8
right_labelLayer
10
211.6527004
20
265.6326537
40
2.5938577
50
345.436201
51
0.7466118
0
ARC
8
right_labelLayer
10
211.4928843
20
265.7058325
40
2.7537351
50
359.1806169
51
15.0431683
0
ARC
8
right_labelLayer
10
212.7406497
20
266.0698186
40
1.4545215
50
13.9535709
51
77.667385
0
ARC
8
right_labelLayer
10
212.3826534
20
264.7869154
40
2.7853135
50
76.1094917
51
90.7028587
0
ARC
8
right_labelLayer
10
212.3290667
20
264.8848993
40
2.6871901
50
89.5859348
51
101.3334287
0
ARC
8
right_labelLayer
10
212.1370311
20
265.8008226
40
1.7514084
50
101.0620545
51
121.9739237
0
ARC
8
right_labelLayer
10
212.0020792
20
266.0435961
40
1.4740721
50
122.5211456
51
134.9966129
0
ARC
8
right_labelLayer
10
212.0576407
20
266.0103131
40
1.5369745
50
135.584017
51
163.0015631
0
ARC
8
right_labelLayer
10
212.8692773
20
265.744288
40
2.3909855
50
162.5911933
51
175.734297
0
ARC
8
right_labelLayer
10
213.8427977
20
265.6483884
40
3.3690222
50
175.3393703
51
180.0863955
0
LINE
8
right_labelLayer
10
225.3248535
20
259.8957497
11
224.0441894
21
259.8957497
0
LINE
8
right_labelLayer
10
224.0441894
20
259.8957497
11
224.0441894
21
265.365574
0
LINE
8
right_labelLayer
10
219.5387207
20
264.3163552
11
219.5387207
21
259.8957497
0
LINE
8
right_labelLayer
10
219.5387207
20
259.8957497
11
218.2580566
21
259.8957497
0
LINE
8
right_labelLayer
10
218.2580566
20
259.8957497
11
218.2580566
21
271.9000466
0
LINE
8
right_labelLayer
10
218.2580566
20
271.9000466
11
219.5387207
21
271.9000466
0
LINE
8
right_labelLayer
10
219.5387207
20
271.9000466
11
219.5387207
21
268.2663552
0
LINE
8
right_labelLayer
10
219.4770019
20
267.1785622
11
219.5541504
21
267.1785622
0
LINE
8
right_labelLayer
10
225.3248535
20
265.411863
11
225.3248535
21
259.8957497
0
ARC
8
right_labelLayer
10
220.4241459
20
265.3863351
40
3.6201031
50
359.6714095
51
8.6877519
0
ARC
8
right_labelLayer
10
221.7658557
20
265.5991239
40
2.2616593
50
8.4931214
51
22.6580001
0
ARC
8
right_labelLayer
10
222.4475369
20
265.8824101
40
1.52346
50
22.702433
51
42.3419635
0
ARC
8
right_labelLayer
10
222.5241613
20
265.9168781
40
1.4438444
50
43.3790945
51
71.5386164
0
ARC
8
right_labelLayer
10
222.2376246
20
265.1162236
40
2.294104
50
71.0827849
51
84.3691291
0
ARC
8
right_labelLayer
10
222.1089985
20
264.0225829
40
3.3951512
50
84.019825
51
90.1510326
0
ARC
8
right_labelLayer
10
222.0724485
20
263.5423506
40
3.8754701
50
89.5919482
51
100.3595317
0
ARC
8
right_labelLayer
10
221.7980281
20
264.9844571
40
2.4075478
50
100.1067657
51
118.0847363
0
ARC
8
right_labelLayer
10
221.5189208
20
265.5321324
40
1.7930001
50
118.4550935
51
139.6706413
0
ARC
8
right_labelLayer
10
221.7991303
20
265.3406035
40
2.130861
50
140.6208355
51
160.5048932
0
ARC
8
right_labelLayer
10
223.2761161
20
264.7938285
40
3.7057129
50
160.1567107
51
171.5312864
0
ARC
8
right_labelLayer
10
225.6659089
20
264.4151952
40
6.125251
50
171.3202436
51
178.3406903
0
ARC
8
right_labelLayer
10
227.803977
20
264.3196674
40
8.2652571
50
178.1079292
51
180.0229606
0
ARC
8
right_labelLayer
10
208.0179553
20
268.2526275
40
11.5207736
50
357.8674413
51
0.0682714
0
ARC
8
right_labelLayer
10
211.931907
20
268.1033054
40
7.6039769
50
354.9828726
51
357.8943744
0
ARC
8
right_labelLayer
10
214.5164049
20
267.8782579
40
5.0097004
50
351.9713549
51
354.9618486
0
ARC
8
right_labelLayer
10
221.723379
20
265.8216336
40
2.5586731
50
119.8315929
51
147.9725752
0
ARC
8
right_labelLayer
10
222.0331863
20
265.3457136
40
3.125808
50
116.6657467
51
120.4183003
0
ARC
8
right_labelLayer
10
222.0910582
20
265.1937179
40
3.2876509
50
96.6652667
51
116.3782478
0
ARC
8
right_labelLayer
10
222.2157047
20
264.3337326
40
4.1563604
50
89.8927301
51
96.9959271
0
ARC
8
right_labelLayer
10
222.2555619
20
263.2943353
40
5.1958494
50
80.6863148
51
90.3537065
0
ARC
8
right_labelLayer
10
222.579088
20
265.19728
40
3.2656512
50
65.6022864
51
80.8843892
0
ARC
8
right_labelLayer
10
222.967587
20
266.0722657
40
2.3083378
50
46.7400835
51
65.4130829
0
ARC
8
right_labelLayer
10
222.9939886
20
266.1556334
40
2.2298539
50
19.2204435
51
45.766058
0
ARC
8
right_labelLayer
10
221.7082381
20
265.6789953
40
3.600946
50
6.4734014
51
19.6468085
0
ARC
8
right_labelLayer
10
219.7869963
20
265.4317233
40
5.5378927
50
359.7945221
51
6.7743812
0
LINE
8
right_labelLayer
10
231.8438965
20
260.9526833
11
231.8438965
21
259.9728982
0
LINE
8
right_labelLayer
10
228.0481933
20
262.3259255
11
228.0481933
21
267.3560036
0
LINE
8
right_labelLayer
10
228.0481933
20
267.3560036
11
226.8369629
21
267.3560036
0
LINE
8
right_labelLayer
10
226.8369629
20
267.3560036
11
226.8369629
21
267.9731911
0
LINE
8
right_labelLayer
10
226.8369629
20
267.9731911
11
228.0481933
21
268.5055154
0
LINE
8
right_labelLayer
10
228.0481933
20
268.5055154
11
228.5882324
21
270.3107888
0
LINE
8
right_labelLayer
10
228.5882324
20
270.3107888
11
229.3288574
21
270.3107888
0
LINE
8
right_labelLayer
10
229.3288574
20
270.3107888
11
229.3288574
21
268.3512185
0
LINE
8
right_labelLayer
10
229.3288574
20
268.3512185
11
231.7821777
21
268.3512185
0
LINE
8
right_labelLayer
10
231.7821777
20
268.3512185
11
231.7821777
21
267.3560036
0
LINE
8
right_labelLayer
10
231.7821777
20
267.3560036
11
229.3288574
21
267.3560036
0
LINE
8
right_labelLayer
10
229.3288574
20
267.3560036
11
229.3288574
21
262.3799294
0
ARC
8
right_labelLayer
10
230.6954513
20
265.0042598
40
4.2058825
50
269.8803734
51
278.3028378
0
ARC
8
right_labelLayer
10
230.7357956
20
264.6751249
40
3.8743791
50
278.4153382
51
279.0082295
0
ARC
8
right_labelLayer
10
230.2636
20
267.691692
40
6.9276766
50
278.9590071
51
280.5104964
0
ARC
8
right_labelLayer
10
230.7132486
20
265.2790471
40
4.47349
50
280.48488
51
282.626776
0
ARC
8
right_labelLayer
10
231.1077584
20
263.5263384
40
2.6769322
50
282.5876608
51
285.5795179
0
ARC
8
right_labelLayer
10
231.3074602
20
262.7922481
40
1.9161844
50
285.7228661
51
286.2572333
0
ARC
8
right_labelLayer
10
231.3054718
20
261.1116971
40
1.2596682
50
287.9888095
51
295.3048065
0
ARC
8
right_labelLayer
10
231.0016511
20
262.0308996
40
2.2277724
50
283.3068869
51
288.1197318
0
ARC
8
right_labelLayer
10
230.6806937
20
263.3697172
40
3.6045207
50
280.0069672
51
283.3734717
0
ARC
8
right_labelLayer
10
230.4658039
20
264.5359628
40
4.7903733
50
279.1863323
51
280.1141884
0
ARC
8
right_labelLayer
10
230.3341277
20
265.2848834
40
5.5507199
50
275.5260282
51
279.2939451
0
ARC
8
right_labelLayer
10
230.482675
20
263.7332571
40
3.9920002
50
270.8932045
51
275.5484394
0
ARC
8
right_labelLayer
10
230.5013485
20
263.0238757
40
3.2824226
50
270.0028834
51
270.7603202
0
ARC
8
right_labelLayer
10
230.4498349
20
263.0859615
40
3.3449079
50
253.7847995
51
270.8852541
0
ARC
8
right_labelLayer
10
230.0535524
20
261.7344865
40
1.9365373
50
190.3817658
51
253.8772404
0
ARC
8
right_labelLayer
10
232.0733925
20
262.2806163
40
4.0254541
50
179.3550828
51
192.847767
0
ARC
8
right_labelLayer
10
231.9076229
20
262.3637996
40
2.5788159
50
179.6416283
51
189.7506278
0
ARC
8
right_labelLayer
10
230.9972602
20
262.201423
40
1.6541144
50
189.5479346
51
205.7873633
0
ARC
8
right_labelLayer
10
230.6231329
20
262.0289011
40
1.2422141
50
206.1294313
51
221.4084191
0
ARC
8
right_labelLayer
10
230.5811852
20
261.9970715
40
1.1897063
50
221.5949203
51
262.350529
0
ARC
8
right_labelLayer
10
230.6809532
20
262.5101104
40
1.7117334
50
261.3266075
51
270.1913535
0
LINE
8
bottom_outsideCutPath
10
258
20
155
11
258
21
150
0
LINE
8
bottom_outsideCutPath
10
258
20
150
11
255
21
150
0
LINE
8
bottom_outsideCutPath
10
255
20
141
11
258
21
141
0
LINE
8
bottom_outsideCutPath
10
258
20
141
11
258
21
132
0
LINE
8
bottom_outsideCutPath
10
258
20
132
11
255
21
132
0
LINE
8
bottom_outsideCutPath
10
255
20
123
11
258
21
123
0
LINE
8
bottom_outsideCutPath
10
258
20
123
11
258
21
114
0
LINE
8
bottom_outsideCutPath
10
258
20
114
11
255
21
114
0
LINE
8
bottom_outsideCutPath
10
255
20
105
11
258
21
105
0
LINE
8
bottom_outsideCutPath
10
258
20
105
11
258
21
96
0
LINE
8
bottom_outsideCutPath
10
258
20
96
11
255
21
96
0
LINE
8
bottom_outsideCutPath
10
255
20
87
11
258
21
87
0
LINE
8
bottom_outsideCutPath
10
258
20
87
11
258
21
82
0
LINE
8
bottom_outsideCutPath
10
258
20
82
11
266.5
21
82
0
LINE
8
bottom_outsideCutPath
10
275.5
20
82
11
284.5
21
82
0
LINE
8
bottom_outsideCutPath
10
293.5
20
82
11
302.5
21
82
0
LINE
8
bottom_outsideCutPath
10
311.5
20
82
11
320.5
21
82
0
LINE
8
bottom_outsideCutPath
10
329.5
20
82
11
338.5
21
82
0
LINE
8
bottom_outsideCutPath
10
347.5
20
82
11
356.5
21
82
0
LINE
8
bottom_outsideCutPath
10
365.5
20
82
11
374.5
21
82
0
LINE
8
bottom_outsideCutPath
10
383.5
20
82
11
392.5
21
82
0
LINE
8
bottom_outsideCutPath
10
401.5
20
82
11
410.5
21
82
0
LINE
8
bottom_outsideCutPath
10
419.5
20
82
11
428
21
82
0
LINE
8
bottom_outsideCutPath
10
428
20
82
11
428
21
87
0
LINE
8
bottom_outsideCutPath
10
428
20
87
11
431
21
87
0
LINE
8
bottom_outsideCutPath
10
431
20
87
11
431
21
96
0
LINE
8
bottom_outsideCutPath
10
431
20
96
11
428
21
96
0
LINE
8
bottom_outsideCutPath
10
428
20
96
11
428
21
105
0
LINE
8
bottom_outsideCutPath
10
428
20
105
11
431
21
105
0
LINE
8
bottom_outsideCutPath
10
431
20
105
11
431
21
114
0
LINE
8
bottom_outsideCutPath
10
431
20
114
11
428
21
114
0
LINE
8
bottom_outsideCutPath
10
428
20
114
11
428
21
123
0
LINE
8
bottom_outsideCutPath
10
428
20
123
11
431
21
123
0
LINE
8
bottom_outsideCutPath
10
431
20
123
11
431
21
132
0
LINE
8
bottom_outsideCutPath
10
431
20
132
11
428
21
132
0
LINE
8
bottom_outsideCutPath
10
428
20
132
11
428
21
141
0
LINE
8
bottom_outsideCutPath
10
428
20
141
11
431
21
141
0
LINE
8
bottom_outsideCutPath
10
431
20
141
11
431
21
150
0
LINE
8
bottom_outsideCutPath
10
431
20
150
11
428
21
150
0
LINE
8
bottom_outsideCutPath
10
428
20
150
11
428
21
155
0
LINE
8
bottom_outsideCutPath
10
428
20
155
11
419.5
21
155
0
LINE
8
bottom_outsideCutPath
10
419.5
20
155
11
419.5
21
158
0
LINE
8
bottom_outsideCutPath
10
419.5
20
158
11
410.5
21
158
0
LINE
8
bottom_outsideCutPath
10
410.5
20
158
11
410.5
21
155
0
LINE
8
bottom_outsideCutPath
10
410.5
20
155
11
401.5
21
155
0
LINE
8
bottom_outsideCutPath
10
401.5
20
155
11
401.5
21
158
0
LINE
8
bottom_outsideCutPath
10
401.5
20
158
11
392.5
21
158
0
LINE
8
bottom_outsideCutPath
10
392.5
20
158
11
392.5
21
155
0
LINE
8
bottom_outsideCutPath
10
392.5
20
155
11
383.5
21
155
0
LINE
8
bottom_outsideCutPath
10
383.5
20
155
11
383.5
21
158
0
LINE
8
bottom_outsideCutPath
10
383.5
20
158
11
374.5
21
158
0
LINE
8
bottom_outsideCutPath
10
374.5
20
158
11
374.5
21
155
0
LINE
8
bottom_outsideCutPath
10
374.5
20
155
11
365.5
21
155
0
LINE
8
bottom_outsideCutPath
10
365.5
20
155
11
365.5
21
158
0
LINE
8
bottom_outsideCutPath
10
365.5
20
158
11
356.5
21
158
0
LINE
8
bottom_outsideCutPath
10
356.5
20
158
11
356.5
21
155
0
LINE
8
bottom_outsideCutPath
10
356.5
20
155
11
347.5
21
155
0
LINE
8
bottom_outsideCutPath
10
347.5
20
155
11
347.5
21
158
0
LINE
8
bottom_outsideCutPath
10
347.5
20
158
11
338.5
21
158
0
LINE
8
bottom_outsideCutPath
10
338.5
20
158
11
338.5
21
155
0
LINE
8
bottom_outsideCutPath
10
338.5
20
155
11
329.5
21
155
0
LINE
8
bottom_outsideCutPath
10
329.5
20
155
11
329.5
21
158
0
LINE
8
bottom_outsideCutPath
10
329.5
20
158
11
320.5
21
158
0
LINE
8
bottom_outsideCutPath
10
320.5
20
158
11
320.5
21
155
0
LINE
8
bottom_outsideCutPath
10
320.5
20
155
11
311.5
21
155
0
LINE
8
bottom_outsideCutPath
10
311.5
20
155
11
311.5
21
158
0
LINE
8
bottom_outsideCutPath
10
311.5
20
158
11
302.5
21
158
0
LINE
8
bottom_outsideCutPath
10
302.5
20
158
11
302.5
21
155
0
LINE
8
bottom_outsideCutPath
10
302.5
20
155
11
293.5
21
155
0
LINE
8
bottom_outsideCutPath
10
293.5
20
155
11
293.5
21
158
0
LINE
8
bottom_outsideCutPath
10
293.5
20
158
11
284.5
21
158
0
LINE
8
bottom_outsideCutPath
10
284.5
20
158
11
284.5
21
155
0
LINE
8
bottom_outsideCutPath
10
284.5
20
155
11
275.5
21
155
0
LINE
8
bottom_outsideCutPath
10
275.5
20
155
11
275.5
21
158
0
LINE
8
bottom_outsideCutPath
10
275.5
20
158
11
266.5
21
158
0
LINE
8
bottom_outsideCutPath
10
266.5
20
158
11
266.5
21
155
0
LINE
8
bottom_outsideCutPath
10
266.5
20
155
11
258
21
155
0
LINE
8
bottom_labelLayer
10
318.289318
20
113.6629926
11
318.1967399
21
113.6629926
0
LINE
8
bottom_labelLayer
10
318.1967399
20
113.6629926
11
317.9267204
21
112.5751996
0
LINE
8
bottom_labelLayer
10
317.9267204
20
112.5751996
11
317.008654
21
112.5751996
0
LINE
8
bottom_labelLayer
10
317.008654
20
112.5751996
11
317.008654
21
124.5794965
0
LINE
8
bottom_labelLayer
10
317.008654
20
124.5794965
11
318.289318
21
124.5794965
0
LINE
8
bottom_labelLayer
10
318.289318
20
124.5794965
11
318.289318
21
121.6632856
0
LINE
8
bottom_labelLayer
10
318.2275993
20
119.9043012
11
318.289318
21
119.9043012
0
ARC
8
bottom_labelLayer
10
320.9816419
20
117.2555683
40
3.9141558
50
74.2393313
51
90.5623694
0
ARC
8
bottom_labelLayer
10
321.2404598
20
118.2050523
40
2.9300813
50
38.5631253
51
74.0670385
0
ARC
8
bottom_labelLayer
10
320.5744084
20
117.687158
40
3.7737385
50
16.4709229
51
38.4075328
0
ARC
8
bottom_labelLayer
10
318.655623
20
117.0854808
40
5.7844707
50
5.1338318
51
16.7973557
0
ARC
8
bottom_labelLayer
10
316.2332416
20
116.8281603
40
8.2202553
50
359.8779439
51
5.4093441
0
ARC
8
bottom_labelLayer
10
316.9447796
20
116.7663497
40
7.5088293
50
350.6562704
51
0.3380244
0
ARC
8
bottom_labelLayer
10
319.5624763
20
116.3211068
40
4.8535971
50
335.8306015
51
350.8254829
0
ARC
8
bottom_labelLayer
10
320.7139565
20
115.8241123
40
3.5996146
50
321.3161537
51
335.5436162
0
ARC
8
bottom_labelLayer
10
321.1541767
20
115.4654006
40
3.0317767
50
274.064005
51
321.408098
0
ARC
8
bottom_labelLayer
10
320.9490919
20
116.7644824
40
4.3435838
50
269.9226007
51
275.548175
0
ARC
8
bottom_labelLayer
10
320.9216277
20
116.3053761
40
3.8845334
50
255.7755448
51
270.3185448
0
ARC
8
bottom_labelLayer
10
320.8107721
20
115.8128557
40
3.379901
50
245.9801414
51
255.5455781
0
ARC
8
bottom_labelLayer
10
320.5960609
20
115.3135458
40
2.8364393
50
215.5850124
51
245.8361638
0
ARC
8
bottom_labelLayer
10
291.5884911
20
121.6407183
40
26.7008365
50
358.1123082
51
0.0484258
0
ARC
8
bottom_labelLayer
10
299.0196301
20
121.3912337
40
19.2655129
50
355.7238626
51
358.1258813
0
ARC
8
bottom_labelLayer
10
302.273655
20
121.1678893
40
16.0039054
50
355.4714994
51
355.652588
0
ARC
8
bottom_labelLayer
10
320.6777002
20
118.2388185
40
2.9117353
50
95.1835061
51
145.1109064
0
ARC
8
bottom_labelLayer
10
320.9336312
20
116.7956181
40
4.373928
50
89.8743364
51
96.8145621
0
ARC
8
bottom_labelLayer
10
320.7312558
20
116.4985058
40
3.5987663
50
89.5731196
51
100.7324332
0
ARC
8
bottom_labelLayer
10
320.4648467
20
117.8444926
40
2.2267403
50
100.4469368
51
119.6700732
0
ARC
8
bottom_labelLayer
10
320.2178052
20
118.3063666
40
1.7031931
50
120.140299
51
142.4249053
0
ARC
8
bottom_labelLayer
10
320.6265173
20
118.03599
40
2.1922742
50
143.3382338
51
161.2559764
0
ARC
8
bottom_labelLayer
10
322.3356637
20
117.4291859
40
4.0058451
50
160.8926312
51
171.2334334
0
ARC
8
bottom_labelLayer
10
325.1888952
20
116.9688922
40
6.8959259
50
171.0667809
51
177.8456902
0
ARC
8
bottom_labelLayer
10
328.1562931
20
116.8179693
40
9.8669779
50
177.6176617
51
180.0425083
0
ARC
8
bottom_labelLayer
10
326.7569212
20
116.7775843
40
8.4676677
50
179.7762707
51
185.7075136
0
ARC
8
bottom_labelLayer
10
323.4183886
20
116.4335972
40
5.1114864
50
185.5924628
51
194.2050822
0
ARC
8
bottom_labelLayer
10
321.2798094
20
115.878561
40
2.9021253
50
193.9430562
51
208.0218325
0
ARC
8
bottom_labelLayer
10
320.4145182
20
115.4383639
40
1.9315486
50
208.5536563
51
217.5605439
0
ARC
8
bottom_labelLayer
10
320.3440223
20
115.4090428
40
1.8578965
50
218.1690465
51
253.8047143
0
ARC
8
bottom_labelLayer
10
320.6886247
20
116.471485
40
2.9744924
50
253.1382307
51
266.848329
0
ARC
8
bottom_labelLayer
10
320.7852583
20
117.6110291
40
4.1177648
50
266.3775185
51
270.0510528
0
ARC
8
bottom_labelLayer
10
320.8162459
20
116.0461103
40
2.5529905
50
269.3868899
51
285.8630699
0
ARC
8
bottom_labelLayer
10
321.0059174
20
115.3606133
40
1.8417607
50
286.0162796
51
326.8497361
0
ARC
8
bottom_labelLayer
10
320.0904642
20
115.9670674
40
2.939854
50
326.7105081
51
343.6661744
0
ARC
8
bottom_labelLayer
10
318.3767745
20
116.4907133
40
4.7316895
50
343.4171565
51
353.6368901
0
ARC
8
bottom_labelLayer
10
315.7884798
20
116.7978309
40
7.3380996
50
353.4934785
51
0.2205576
0
ARC
8
bottom_labelLayer
10
315.5603121
20
116.8567032
40
7.5662749
50
359.7680935
51
6.3095365
0
ARC
8
bottom_labelLayer
10
318.4103848
20
117.1837694
40
4.6975367
50
6.1648466
51
16.0396477
0
ARC
8
bottom_labelLayer
10
320.2463357
20
117.7248236
40
2.7835924
50
15.7779561
51
32.0151265
0
ARC
8
bottom_labelLayer
10
320.8188633
20
118.0526928
40
2.1244773
50
32.7033644
51
35.5242084
0
ARC
8
bottom_labelLayer
10
321.02825
20
118.2015143
40
1.8675915
50
35.5408407
51
79.8011294
0
ARC
8
bottom_labelLayer
10
320.7774513
20
117.1353181
40
2.9619176
50
78.6781393
51
90.3749552
0
ARC
8
bottom_labelLayer
10
327.3740248
20
116.7660518
40
6.6151506
50
349.1761926
51
0.3862712
0
ARC
8
bottom_labelLayer
10
329.6011824
20
116.3220644
40
4.3442761
50
330.2507194
51
349.4116379
0
ARC
8
bottom_labelLayer
10
330.2866034
20
115.9658087
40
3.5725468
50
318.143964
51
329.7566404
0
ARC
8
bottom_labelLayer
10
330.4103035
20
115.8666747
40
3.4142748
50
278.8959105
51
317.9979182
0
ARC
8
bottom_labelLayer
10
330.091557
20
117.3938199
40
4.9729645
50
269.7502996
51
279.8033174
0
ARC
8
bottom_labelLayer
10
330.0398639
20
116.5333655
40
4.1125723
50
253.5436966
51
270.4182457
0
ARC
8
bottom_labelLayer
10
329.9029682
20
116.0038125
40
3.5659807
50
238.8115756
51
253.2428182
0
ARC
8
bottom_labelLayer
10
329.8587833
20
115.9149545
40
3.4670937
50
207.794706
51
238.67579
0
ARC
8
bottom_labelLayer
10
330.4928682
20
116.303291
40
4.2093758
50
205.6560646
51
208.4460965
0
ARC
8
bottom_labelLayer
10
330.9810967
20
116.5067078
40
4.7376254
50
188.9102629
51
205.317128
0
ARC
8
bottom_labelLayer
10
332.6267817
20
116.7854319
40
6.406654
50
179.7744803
51
189.0932826
0
ARC
8
bottom_labelLayer
10
332.8695363
20
116.8556871
40
6.6495115
50
169.2442994
51
180.3880766
0
ARC
8
bottom_labelLayer
10
330.6114103
20
117.3020365
40
4.3477916
50
150.7111396
51
169.4695461
0
ARC
8
bottom_labelLayer
10
329.8905519
20
117.6722245
40
3.5381093
50
138.1759503
51
150.2287423
0
ARC
8
bottom_labelLayer
10
329.7706408
20
117.7642413
40
3.3874101
50
99.1759379
51
137.9832693
0
ARC
8
bottom_labelLayer
10
330.1006789
20
116.2110423
40
4.9739772
50
89.7326468
51
100.0759779
0
ARC
8
bottom_labelLayer
10
330.1666402
20
116.8818185
40
4.3033591
50
73.5222768
51
90.5692159
0
ARC
8
bottom_labelLayer
10
330.4190071
20
117.7987355
40
3.3525666
50
41.1445641
51
73.2133818
0
ARC
8
bottom_labelLayer
10
329.9372588
20
117.3846797
40
3.9877842
50
13.5014412
51
41.0703366
0
ARC
8
bottom_labelLayer
10
328.0760297
20
116.8976223
40
5.9114186
50
1.1277249
51
13.8799929
0
ARC
8
bottom_labelLayer
10
326.4726109
20
116.8117114
40
7.5164142
50
359.9919007
51
1.5419263
0
ARC
8
bottom_labelLayer
10
334.0322977
20
116.7773671
40
6.4852526
50
179.7059619
51
187.9160838
0
ARC
8
bottom_labelLayer
10
331.6537101
20
116.4356847
40
4.082288
50
187.7639253
51
200.0976932
0
ARC
8
bottom_labelLayer
10
330.3433567
20
115.9555695
40
2.6867465
50
200.0846002
51
216.913166
0
ARC
8
bottom_labelLayer
10
329.8648603
20
115.6139004
40
2.0990066
50
217.3009559
51
261.7099079
0
ARC
8
bottom_labelLayer
10
330.0869945
20
116.6739033
40
3.180667
50
260.5033211
51
270.2476779
0
ARC
8
bottom_labelLayer
10
330.1293933
20
116.4677788
40
2.9746507
50
269.4481633
51
284.7255847
0
ARC
8
bottom_labelLayer
10
330.3648788
20
115.5944414
40
2.0701487
50
284.56624
51
322.6333854
0
ARC
8
bottom_labelLayer
10
329.8143008
20
115.9922089
40
2.7492002
50
323.0089357
51
342.639056
0
ARC
8
bottom_labelLayer
10
328.2395276
20
116.5068907
40
4.4058607
50
342.361567
51
353.7537472
0
ARC
8
bottom_labelLayer
10
325.9161978
20
116.7869344
40
6.7459157
50
353.5363277
51
0.2014169
0
ARC
8
bottom_labelLayer
10
326.2721844
20
116.8432629
40
6.3899708
50
359.7075644
51
7.8972713
0
ARC
8
bottom_labelLayer
10
328.6123746
20
117.1787512
40
4.0258942
50
7.7439868
51
20.0690293
0
ARC
8
bottom_labelLayer
10
329.9164104
20
117.6572832
40
2.6368311
50
20.0257227
51
37.4350445
0
ARC
8
bottom_labelLayer
10
330.3490852
20
117.9643029
40
2.106731
50
37.9577577
51
80.4006247
0
ARC
8
bottom_labelLayer
10
330.1032126
20
116.8672434
40
3.2299784
50
79.3453519
51
90.3174988
0
ARC
8
bottom_labelLayer
10
330.0576843
20
117.0494702
40
3.0478273
50
89.4805828
51
103.8805121
0
ARC
8
bottom_labelLayer
10
329.8015887
20
118.02468
40
2.0397114
50
103.4685279
51
142.3118788
0
ARC
8
bottom_labelLayer
10
330.2994604
20
117.674542
40
2.6479044
50
142.9025798
51
162.3749684
0
ARC
8
bottom_labelLayer
10
331.8682501
20
117.1517459
40
4.3014111
50
162.0653074
51
173.1674961
0
ARC
8
bottom_labelLayer
10
334.3144162
20
116.8397513
40
6.7673481
50
173.0086209
51
180.2463972
0
LINE
8
bottom_labelLayer
10
340.1223258
20
113.6321332
11
340.1223258
21
112.6523481
0
LINE
8
bottom_labelLayer
10
336.3266227
20
115.0053754
11
336.3266227
21
120.0354535
0
LINE
8
bottom_labelLayer
10
336.3266227
20
120.0354535
11
335.1153922
21
120.0354535
0
LINE
8
bottom_labelLayer
10
335.1153922
20
120.0354535
11
335.1153922
21
120.652641
0
LINE
8
bottom_labelLayer
10
335.1153922
20
120.652641
11
336.3266227
21
121.1849652
0
LINE
8
bottom_labelLayer
10
336.3266227
20
121.1849652
11
336.8666618
21
122.9902387
0
LINE
8
bottom_labelLayer
10
336.8666618
20
122.9902387
11
337.6072868
21
122.9902387
0
LINE
8
bottom_labelLayer
10
337.6072868
20
122.9902387
11
337.6072868
21
121.0306684
0
LINE
8
bottom_labelLayer
10
337.6072868
20
121.0306684
11
340.0606071
21
121.0306684
0
LINE
8
bottom_labelLayer
10
340.0606071
20
121.0306684
11
340.0606071
21
120.0354535
0
LINE
8
bottom_labelLayer
10
340.0606071
20
120.0354535
11
337.6072868
21
120.0354535
0
LINE
8
bottom_labelLayer
10
337.6072868
20
120.0354535
11
337.6072868
21
115.0593793
0
ARC
8
bottom_labelLayer
10
338.9738806
20
117.6837097
40
4.2058825
50
269.8803734
51
278.3028378
0
ARC
8
bottom_labelLayer
10
339.014225
20
117.3545748
40
3.8743791
50
278.4153382
51
279.0082295
0
ARC
8
bottom_labelLayer
10
338.5420293
20
120.3711419
40
6.9276766
50
278.9590071
51
280.5104964
0
ARC
8
bottom_labelLayer
10
338.991678
20
117.958497
40
4.47349
50
280.48488
51
282.626776
0
ARC
8
bottom_labelLayer
10
339.3861877
20
116.2057883
40
2.6769322
50
282.5876608
51
285.5795179
0
ARC
8
bottom_labelLayer
10
339.5858896
20
115.471698
40
1.9161844
50
285.7228661
51
286.2572333
0
ARC
8
bottom_labelLayer
10
339.5839012
20
113.791147
40
1.2596682
50
287.9888095
51
295.3048065
0
ARC
8
bottom_labelLayer
10
339.2800805
20
114.7103495
40
2.2277724
50
283.3068869
51
288.1197318
0
ARC
8
bottom_labelLayer
10
338.959123
20
116.0491671
40
3.6045207
50
280.0069672
51
283.3734717
0
ARC
8
bottom_labelLayer
10
338.7442332
20
117.2154127
40
4.7903733
50
279.1863323
51
280.1141884
0
ARC
8
bottom_labelLayer
10
338.6125571
20
117.9643333
40
5.5507199
50
275.5260282
51
279.2939451
0
ARC
8
bottom_labelLayer
10
338.7611044
20
116.412707
40
3.9920002
50
270.8932045
51
275.5484394
0
ARC
8
bottom_labelLayer
10
338.7797778
20
115.7033256
40
3.2824226
50
270.0028834
51
270.7603202
0
ARC
8
bottom_labelLayer
10
338.7282643
20
115.7654114
40
3.3449079
50
253.7847995
51
270.8852541
0
ARC
8
bottom_labelLayer
10
338.3319818
20
114.4139364
40
1.9365373
50
190.3817658
51
253.8772404
0
ARC
8
bottom_labelLayer
10
340.3518219
20
114.9600661
40
4.0254541
50
179.3550828
51
192.847767
0
ARC
8
bottom_labelLayer
10
340.1860523
20
115.0432495
40
2.5788159
50
179.6416283
51
189.7506278
0
ARC
8
bottom_labelLayer
10
339.2756896
20
114.8808729
40
1.6541144
50
189.5479346
51
205.7873633
0
ARC
8
bottom_labelLayer
10
338.9015623
20
114.7083509
40
1.2422141
50
206.1294313
51
221.4084191
0
ARC
8
bottom_labelLayer
10
338.8596145
20
114.6765214
40
1.1897063
50
221.5949203
51
262.350529
0
ARC
8
bottom_labelLayer
10
338.9593825
20
115.1895603
40
1.7117334
50
261.3266075
51
270.1913535
0
LINE
8
bottom_labelLayer
10
345.7001579
20
113.6321332
11
345.7001579
21
112.6523481
0
LINE
8
bottom_labelLayer
10
341.9044547
20
115.0053754
11
341.9044547
21
120.0354535
0
LINE
8
bottom_labelLayer
10
341.9044547
20
120.0354535
11
340.6932243
21
120.0354535
0
LINE
8
bottom_labelLayer
10
340.6932243
20
120.0354535
11
340.6932243
21
120.652641
0
LINE
8
bottom_labelLayer
10
340.6932243
20
120.652641
11
341.9044547
21
121.1849652
0
LINE
8
bottom_labelLayer
10
341.9044547
20
121.1849652
11
342.4444938
21
122.9902387
0
LINE
8
bottom_labelLayer
10
342.4444938
20
122.9902387
11
343.1851188
21
122.9902387
0
LINE
8
bottom_labelLayer
10
343.1851188
20
122.9902387
11
343.1851188
21
121.0306684
0
LINE
8
bottom_labelLayer
10
343.1851188
20
121.0306684
11
345.6384391
21
121.0306684
0
LINE
8
bottom_labelLayer
10
345.6384391
20
121.0306684
11
345.6384391
21
120.0354535
0
LINE
8
bottom_labelLayer
10
345.6384391
20
120.0354535
11
343.1851188
21
120.0354535
0
LINE
8
bottom_labelLayer
10
343.1851188
20
120.0354535
11
343.1851188
21
115.0593793
0
ARC
8
bottom_labelLayer
10
344.5517127
20
117.6837097
40
4.2058825
50
269.8803734
51
278.3028378
0
ARC
8
bottom_labelLayer
10
344.592057
20
117.3545748
40
3.8743791
50
278.4153382
51
279.0082295
0
ARC
8
bottom_labelLayer
10
344.1198614
20
120.3711419
40
6.9276766
50
278.9590071
51
280.5104964
0
ARC
8
bottom_labelLayer
10
344.56951
20
117.958497
40
4.47349
50
280.48488
51
282.626776
0
ARC
8
bottom_labelLayer
10
344.9640198
20
116.2057883
40
2.6769322
50
282.5876608
51
285.5795179
0
ARC
8
bottom_labelLayer
10
345.1637217
20
115.471698
40
1.9161844
50
285.7228661
51
286.2572333
0
ARC
8
bottom_labelLayer
10
345.1617332
20
113.791147
40
1.2596682
50
287.9888095
51
295.3048065
0
ARC
8
bottom_labelLayer
10
344.8579125
20
114.7103495
40
2.2277724
50
283.3068869
51
288.1197318
0
ARC
8
bottom_labelLayer
10
344.5369551
20
116.0491671
40
3.6045207
50
280.0069672
51
283.3734717
0
ARC
8
bottom_labelLayer
10
344.3220653
20
117.2154127
40
4.7903733
50
279.1863323
51
280.1141884
0
ARC
8
bottom_labelLayer
10
344.1903891
20
117.9643333
40
5.5507199
50
275.5260282
51
279.2939451
0
ARC
8
bottom_labelLayer
10
344.3389364
20
116.412707
40
3.9920002
50
270.8932045
51
275.5484394
0
ARC
8
bottom_labelLayer
10
344.3576099
20
115.7033256
40
3.2824226
50
270.0028834
51
270.7603202
0
ARC
8
bottom_labelLayer
10
344.3060963
20
115.7654114
40
3.3449079
50
253.7847995
51
270.8852541
0
ARC
8
bottom_labelLayer
10
343.9098138
20
114.4139364
40
1.9365373
50
190.3817658
51
253.8772404
0
ARC
8
bottom_labelLayer
10
345.9296539
20
114.9600661
40
4.0254541
50
179.3550828
51
192.847767
0
ARC
8
bottom_labelLayer
10
345.7638843
20
115.0432495
40
2.5788159
50
179.6416283
51
189.7506278
0
ARC
8
bottom_labelLayer
10
344.8535216
20
114.8808729
40
1.6541144
50
189.5479346
51
205.7873633
0
ARC
8
bottom_labelLayer
10
344.4793943
20
114.7083509
40
1.2422141
50
206.1294313
51
221.4084191
0
ARC
8
bottom_labelLayer
10
344.4374466
20
114.6765214
40
1.1897063
50
221.5949203
51
262.350529
0
ARC
8
bottom_labelLayer
10
344.5372146
20
115.1895603
40
1.7117334
50
261.3266075
51
270.1913535
0
ARC
8
bottom_labelLayer
10
348.0729506
20
116.7660518
40
6.6151506
50
349.1761926
51
0.3862712
0
ARC
8
bottom_labelLayer
10
350.3001082
20
116.3220644
40
4.3442761
50
330.2507194
51
349.4116379
0
ARC
8
bottom_labelLayer
10
350.9855292
20
115.9658087
40
3.5725468
50
318.143964
51
329.7566404
0
ARC
8
bottom_labelLayer
10
351.1092293
20
115.8666747
40
3.4142748
50
278.8959105
51
317.9979182
0
ARC
8
bottom_labelLayer
10
350.7904828
20
117.3938199
40
4.9729645
50
269.7502996
51
279.8033174
0
ARC
8
bottom_labelLayer
10
350.7387897
20
116.5333655
40
4.1125723
50
253.5436966
51
270.4182457
0
ARC
8
bottom_labelLayer
10
350.601894
20
116.0038125
40
3.5659807
50
238.8115756
51
253.2428182
0
ARC
8
bottom_labelLayer
10
350.5577091
20
115.9149545
40
3.4670937
50
207.794706
51
238.67579
0
ARC
8
bottom_labelLayer
10
351.191794
20
116.303291
40
4.2093758
50
205.6560646
51
208.4460965
0
ARC
8
bottom_labelLayer
10
351.6800225
20
116.5067078
40
4.7376254
50
188.9102629
51
205.317128
0
ARC
8
bottom_labelLayer
10
353.3257074
20
116.7854319
40
6.406654
50
179.7744803
51
189.0932826
0
ARC
8
bottom_labelLayer
10
353.5684621
20
116.8556871
40
6.6495115
50
169.2442994
51
180.3880766
0
ARC
8
bottom_labelLayer
10
351.3103361
20
117.3020365
40
4.3477916
50
150.7111396
51
169.4695461
0
ARC
8
bottom_labelLayer
10
350.5894777
20
117.6722245
40
3.5381093
50
138.1759503
51
150.2287423
0
ARC
8
bottom_labelLayer
10
350.4695666
20
117.7642413
40
3.3874101
50
99.1759379
51
137.9832693
0
ARC
8
bottom_labelLayer
10
350.7996047
20
116.2110423
40
4.9739772
50
89.7326468
51
100.0759779
0
ARC
8
bottom_labelLayer
10
350.865566
20
116.8818185
40
4.3033591
50
73.5222768
51
90.5692159
0
ARC
8
bottom_labelLayer
10
351.1179329
20
117.7987355
40
3.3525666
50
41.1445641
51
73.2133818
0
ARC
8
bottom_labelLayer
10
350.6361846
20
117.3846797
40
3.9877842
50
13.5014412
51
41.0703366
0
ARC
8
bottom_labelLayer
10
348.7749555
20
116.8976223
40
5.9114186
50
1.1277249
51
13.8799929
0
ARC
8
bottom_labelLayer
10
347.1715367
20
116.8117114
40
7.5164142
50
359.9919007
51
1.5419263
0
ARC
8
bottom_labelLayer
10
354.7312235
20
116.7773671
40
6.4852526
50
179.7059619
51
187.9160838
0
ARC
8
bottom_labelLayer
10
352.3526359
20
116.4356847
40
4.082288
50
187.7639253
51
200.0976932
0
ARC
8
bottom_labelLayer
10
351.0422825
20
115.9555695
40
2.6867465
50
200.0846002
51
216.913166
0
ARC
8
bottom_labelLayer
10
350.5637861
20
115.6139004
40
2.0990066
50
217.3009559
51
261.7099079
0
ARC
8
bottom_labelLayer
10
350.7859203
20
116.6739033
40
3.180667
50
260.5033211
51
270.2476779
0
ARC
8
bottom_labelLayer
10
350.8283191
20
116.4677788
40
2.9746507
50
269.4481633
51
284.7255847
0
ARC
8
bottom_labelLayer
10
351.0638045
20
115.5944414
40
2.0701487
50
284.56624
51
322.6333854
0
ARC
8
bottom_labelLayer
10
350.5132265
20
115.9922089
40
2.7492002
50
323.0089357
51
342.639056
0
ARC
8
bottom_labelLayer
10
348.9384534
20
116.5068907
40
4.4058607
50
342.361567
51
353.7537472
0
ARC
8
bottom_labelLayer
10
346.6151235
20
116.7869344
40
6.7459157
50
353.5363277
51
0.2014169
0
ARC
8
bottom_labelLayer
10
346.9711102
20
116.8432629
40
6.3899708
50
359.7075644
51
7.8972713
0
ARC
8
bottom_labelLayer
10
349.3113003
20
117.1787512
40
4.0258942
50
7.7439868
51
20.0690293
0
ARC
8
bottom_labelLayer
10
350.6153361
20
117.6572832
40
2.6368311
50
20.0257227
51
37.4350445
0
ARC
8
bottom_labelLayer
10
351.0480109
20
117.9643029
40
2.106731
50
37.9577577
51
80.4006247
0
ARC
8
bottom_labelLayer
10
350.8021384
20
116.8672434
40
3.2299784
50
79.3453519
51
90.3174988
0
ARC
8
bottom_labelLayer
10
350.7566101
20
117.0494702
40
3.0478273
50
89.4805828
51
103.8805121
0
ARC
8
bottom_labelLayer
10
350.5005145
20
118.02468
40
2.0397114
50
103.4685279
51
142.3118788
0
ARC
8
bottom_labelLayer
10
350.9983862
20
117.674542
40
2.6479044
50
142.9025798
51
162.3749684
0
ARC
8
bottom_labelLayer
10
352.5671759
20
117.1517459
40
4.3014111
50
162.0653074
51
173.1674961
0
ARC
8
bottom_labelLayer
10
355.013342
20
116.8397513
40
6.7673481
50
173.0086209
51
180.2463972
0
LINE
8
bottom_labelLayer
10
368.9912712
20
112.5751996
11
367.7106071
21
112.5751996
0
LINE
8
bottom_labelLayer
10
367.7106071
20
112.5751996
11
367.7106071
21
118.0758832
0
LINE
8
bottom_labelLayer
10
363.5985954
20
117.296684
11
363.5985954
21
112.5751996
0
LINE
8
bottom_labelLayer
10
363.5985954
20
112.5751996
11
362.3179313
21
112.5751996
0
LINE
8
bottom_labelLayer
10
362.3179313
20
112.5751996
11
362.3179313
21
118.0758832
0
LINE
8
bottom_labelLayer
10
358.2136344
20
117.0112348
11
358.2136344
21
112.5751996
0
LINE
8
bottom_labelLayer
10
358.2136344
20
112.5751996
11
356.9329704
21
112.5751996
0
LINE
8
bottom_labelLayer
10
356.9329704
20
112.5751996
11
356.9329704
21
121.0306684
0
LINE
8
bottom_labelLayer
10
356.9329704
20
121.0306684
11
357.9744743
21
121.0306684
0
LINE
8
bottom_labelLayer
10
357.9744743
20
121.0306684
11
358.1827751
21
119.8734418
0
LINE
8
bottom_labelLayer
10
358.1827751
20
119.8734418
11
358.2444938
21
119.8734418
0
LINE
8
bottom_labelLayer
10
363.3362907
20
119.7500043
11
363.3980094
21
119.7500043
0
LINE
8
bottom_labelLayer
10
368.9912712
20
118.0913129
11
368.9912712
21
112.5751996
0
ARC
8
bottom_labelLayer
10
363.9326223
20
118.0960071
40
3.7780384
50
359.6948103
51
8.147177
0
ARC
8
bottom_labelLayer
10
365.3241748
20
118.3019426
40
2.3713553
50
7.9864712
51
20.7949481
0
ARC
8
bottom_labelLayer
10
366.0933987
20
118.5966026
40
1.5476312
50
20.7071478
51
40.0217173
0
ARC
8
bottom_labelLayer
10
366.2621544
20
118.7070163
40
1.3476064
50
41.0408166
51
73.1792645
0
ARC
8
bottom_labelLayer
10
366.0179744
20
117.9684899
40
2.1252896
50
72.6395562
51
86.2568238
0
ARC
8
bottom_labelLayer
10
365.9397486
20
117.1243307
40
2.9728436
50
85.8145285
51
90.0685259
0
ARC
8
bottom_labelLayer
10
365.9110106
20
116.8019125
40
3.295356
50
89.562153
51
101.2961676
0
ARC
8
bottom_labelLayer
10
365.6628141
20
117.9901168
40
2.0815803
50
101.0032375
51
121.7840726
0
ARC
8
bottom_labelLayer
10
365.4741219
20
118.3269832
40
1.6959287
50
122.3597111
51
140.288436
0
ARC
8
bottom_labelLayer
10
365.8135952
20
118.0780681
40
2.1162657
50
140.9765197
51
161.1699661
0
ARC
8
bottom_labelLayer
10
367.0924707
20
117.6229439
40
3.4736394
50
160.8731657
51
172.5272361
0
ARC
8
bottom_labelLayer
10
369.2294148
20
117.3278153
40
5.6308359
50
172.3776386
51
180.1829764
0
ARC
8
bottom_labelLayer
10
370.5621365
20
117.2967976
40
6.9635412
50
179.8927445
51
180.0009347
0
ARC
8
bottom_labelLayer
10
358.5399465
20
118.0960071
40
3.7780384
50
359.6948103
51
8.147177
0
ARC
8
bottom_labelLayer
10
359.931499
20
118.3019426
40
2.3713553
50
7.9864712
51
20.7949481
0
ARC
8
bottom_labelLayer
10
360.7007229
20
118.5966026
40
1.5476312
50
20.7071478
51
40.0217173
0
ARC
8
bottom_labelLayer
10
360.8729878
20
118.7094418
40
1.3433672
50
41.0610634
51
72.8993607
0
ARC
8
bottom_labelLayer
10
360.6241809
20
117.968717
40
2.1246003
50
72.3600998
51
85.9561815
0
ARC
8
bottom_labelLayer
10
360.539958
20
117.0982775
40
2.9988976
50
85.5238104
51
90.0793962
0
ARC
8
bottom_labelLayer
10
360.5112281
20
116.9164588
40
3.1808084
50
89.5573404
51
101.4832075
0
ARC
8
bottom_labelLayer
10
360.2670901
20
118.0603031
40
2.0112903
50
101.1546401
51
123.065566
0
ARC
8
bottom_labelLayer
10
360.101137
20
118.3493845
40
1.6785864
50
123.7020267
51
142.3022008
0
ARC
8
bottom_labelLayer
10
360.4898658
20
118.085665
40
2.1476267
50
143.0769477
51
161.3913911
0
ARC
8
bottom_labelLayer
10
362.0568095
20
117.5322548
40
3.8093239
50
161.0234316
51
171.4469273
0
ARC
8
bottom_labelLayer
10
364.6508695
20
117.1259027
40
6.434989
50
171.3041983
51
178.3501713
0
ARC
8
bottom_labelLayer
10
367.1300096
20
117.0151749
40
8.9163761
50
178.0976002
51
180.0253192
0
ARC
8
bottom_labelLayer
10
360.4141112
20
118.5975999
40
2.516945
50
117.120947
51
149.5423743
0
ARC
8
bottom_labelLayer
10
360.6709877
20
118.1410368
40
3.0404788
50
93.8343304
51
117.5072286
0
ARC
8
bottom_labelLayer
10
360.7419392
20
117.5125788
40
3.6723872
50
89.9662383
51
94.283145
0
ARC
8
bottom_labelLayer
10
360.7844458
20
116.9922532
40
4.1929061
50
77.5572248
51
90.5512879
0
ARC
8
bottom_labelLayer
10
361.1735016
20
118.6656555
40
2.4750573
50
52.7027101
51
78.0053734
0
ARC
8
bottom_labelLayer
10
361.312117
20
118.9235513
40
2.1863906
50
22.2097785
51
51.4970744
0
ARC
8
bottom_labelLayer
10
365.7179894
20
118.4204179
40
2.6739684
50
119.4041826
51
150.1828687
0
ARC
8
bottom_labelLayer
10
366.0146111
20
117.9693357
40
3.2127854
50
118.2584914
51
120.0630381
0
ARC
8
bottom_labelLayer
10
366.0136992
20
117.9364789
40
3.2413357
50
95.8635099
51
117.9693143
0
ARC
8
bottom_labelLayer
10
366.1233991
20
117.1432532
40
4.041716
50
89.9196923
51
96.261731
0
ARC
8
bottom_labelLayer
10
366.1586163
20
116.7333926
40
4.4516708
50
79.936117
51
90.380358
0
ARC
8
bottom_labelLayer
10
366.4552386
20
118.3398714
40
2.8180991
50
62.9723123
51
80.1665204
0
ARC
8
bottom_labelLayer
10
366.7653178
20
118.9760308
40
2.1105493
50
44.2289967
51
62.6229337
0
ARC
8
bottom_labelLayer
10
366.6730899
20
118.9352863
40
2.2053362
50
19.5612113
51
43.3161146
0
ARC
8
bottom_labelLayer
10
365.3336979
20
118.4322084
40
3.6359518
50
7.5041912
51
19.9645529
0
ARC
8
bottom_labelLayer
10
363.1173602
20
118.1209681
40
5.8739859
50
359.7107373
51
7.6907275
0
ENDSEC
0
EOF